<svg xmlns="http://www.w3.org/2000/svg" width="111.626" height="107" viewBox="0 0 111.626 107">
  <g id="Navigation-amico_1_" data-name="Navigation-amico (1)" transform="translate(-17.085 -27.903)">
    <rect id="Rectangle_2589" data-name="Rectangle 2589" width="107" height="107" transform="translate(21.71 27.903)" fill="none"/>
    <g id="freepik--Shadows--inject-2" transform="translate(17.085 69.566)" opacity="0.5">
      <path id="freepik--Shadow--inject-2" d="M89.977,261.307l37.69-21.76a.91.91,0,0,0,0-1.725L58.386,198a3.309,3.309,0,0,0-2.991,0L17.7,219.743c-.826.489-.826,1.251,0,1.728L86.988,261.3A3.3,3.3,0,0,0,89.977,261.307Z" transform="translate(-17.085 -197.638)" fill="#e0e0e0"/>
      <path id="freepik--shadow--inject-2-2" data-name="freepik--shadow--inject-2" d="M409.6,431.708a.963.963,0,0,1-.794-.447l-6.236-8.751a.929.929,0,0,1-.122-.995.865.865,0,0,1,.789-.457,1.342,1.342,0,0,1,.286.034l15.561,3.7c.748.178.762.706.75.863s-.117.674-.885.733l-7.688.489-.772,4.015a.916.916,0,0,1-.892.814Z" transform="translate(-308.21 -366.463)" fill="#e0e0e0"/>
    </g>
    <g id="freepik--Signal--inject-2" transform="translate(81.314 47.102)">
      <g id="freepik--signal--inject-2-2" data-name="freepik--signal--inject-2">
        <path id="Path_21358" data-name="Path 21358" d="M309.362,106.174a.408.408,0,0,0-.244-.325,1.283,1.283,0,0,0-1.163,0,.415.415,0,0,0-.244.325h0v37.673h1.645V106.174Z" transform="translate(-300.922 -105.71)" fill="#37474f"/>
        <path id="Path_21359" data-name="Path 21359" d="M309.392,106.174c0-.244-.367-.464-.821-.464s-.821.208-.821.464.367.467.821.467S309.392,106.431,309.392,106.174Z" transform="translate(-300.952 -105.71)" fill="#455a64"/>
        <path id="Path_21360" data-name="Path 21360" d="M292.27,122.267l-10.728-6.2L279.93,117l1.613,2.793,10.728,6.2Z" transform="translate(-279.93 -113.538)" fill="#ffa726"/>
        <g id="Group_10421" data-name="Group 10421" transform="translate(0 2.532)" opacity="0.4">
          <path id="Path_21361" data-name="Path 21361" d="M292.27,122.267l-10.728-6.2L279.93,117l1.613,2.793,10.728,6.2Z" transform="translate(-279.93 -116.07)"/>
        </g>
        <path id="Path_21362" data-name="Path 21362" d="M286.53,114.627l.806-.467,10.742,6.207-.821.457Z" transform="translate(-284.917 -112.095)" fill="#ffa726"/>
        <g id="Group_10422" data-name="Group 10422" transform="translate(1.613 2.065)" opacity="0.3">
          <path id="Path_21363" data-name="Path 21363" d="M286.53,114.627l.806-.467,10.742,6.207-.821.457Z" transform="translate(-286.53 -114.16)"/>
        </g>
        <path id="Path_21364" data-name="Path 21364" d="M331.251,143.287l-.821.457v-3.727l.821-.457Z" transform="translate(-318.09 -131.288)" fill="#ffa726"/>
        <path id="Path_21365" data-name="Path 21365" d="M331.251,143.287l-.821.457v-3.727l.821-.457Z" transform="translate(-318.09 -131.288)" opacity="0.55"/>
        <text id="_2nd_Street" data-name="2nd Street" transform="translate(2.192 5.003)" fill="#fff" font-size="1" font-family="SegoeUI-Bold, Segoe UI" font-weight="700" letter-spacing="0.05em"><tspan x="0" y="0">2nd St</tspan><tspan y="0" letter-spacing="0.039em">reet</tspan></text>
      </g>
    </g>
    <g id="freepik--Plants--inject-2" transform="translate(118.914 90.379)">
      <g id="freepik--plants--inject-2-2" data-name="freepik--plants--inject-2">
        <path id="Path_21366" data-name="Path 21366" d="M435.112,296.328,433.8,295.2a25.963,25.963,0,0,1,1.234-7.3c1.667-4.577,5.2-5.579,6.275-4.887s1.078,2.148-1.562,4.467A16.085,16.085,0,0,0,435.112,296.328Z" transform="translate(-433.8 -282.81)" fill="#ffa726"/>
        <g id="Group_10423" data-name="Group 10423" opacity="0.15">
          <path id="Path_21367" data-name="Path 21367" d="M435.112,296.328,433.8,295.2a25.963,25.963,0,0,1,1.234-7.3c1.667-4.577,5.2-5.579,6.275-4.887s1.078,2.148-1.562,4.467A16.085,16.085,0,0,0,435.112,296.328Z" transform="translate(-433.8 -282.81)"/>
        </g>
        <path id="Path_21368" data-name="Path 21368" d="M438.207,296.3h.015a.108.108,0,0,0,.112-.1c.244-4.538,2.971-9.041,5.347-10.6a.105.105,0,0,0,.032-.147.11.11,0,0,0-.149-.032c-2.422,1.591-5.19,6.16-5.444,10.767a.108.108,0,0,0,.088.115Z" transform="translate(-437.063 -284.769)" fill="#fff"/>
        <path id="Path_21369" data-name="Path 21369" d="M441.808,313.482c.208.178.748-.022.955-.11a2.234,2.234,0,0,0,.907-.706,2.126,2.126,0,0,0,.43-1.222,4.77,4.77,0,0,0-.029-.7l-.059-.684a1.677,1.677,0,0,1,.032-.672,1.735,1.735,0,0,1,1-.863,1.661,1.661,0,0,0,1.043-1.063,1.915,1.915,0,0,0-.244-1.207c-.193-.374-.44-.718-.6-1.1a1.322,1.322,0,0,1-.108-.882,1.371,1.371,0,0,1,.281-.489,7.5,7.5,0,0,0,.77-.929,1.068,1.068,0,0,0,.02-1.126,1.236,1.236,0,0,0-.872-.406,2.119,2.119,0,0,0-.911.134c-.938.305-1.618,1.222-2.585,1.4a8.839,8.839,0,0,1-1.139.054,1.376,1.376,0,0,0-1.017.44c-.457.594,0,1.525-.371,2.18-.327.579-.977.7-1.42,1.19a1.341,1.341,0,0,0-.315.779,3.934,3.934,0,0,0,.076,1.434,9.638,9.638,0,0,0,.511,1.378C438.182,310.33,441.779,313.458,441.808,313.482Z" transform="translate(-436.628 -296.795)" fill="#ffa726"/>
        <path id="Path_21370" data-name="Path 21370" d="M445.934,313.685h0a.108.108,0,0,0,.125-.088c.64-4.22,3.511-8.455,5.207-9.518a.11.11,0,0,0,.034-.147.107.107,0,0,0-.149-.034c-1.73,1.083-4.655,5.388-5.305,9.665A.108.108,0,0,0,445.934,313.685Z" transform="translate(-442.902 -298.732)" fill="#fff"/>
        <path id="Path_21371" data-name="Path 21371" d="M452.46,323.422h.032a14.443,14.443,0,0,1,3.13.1.11.11,0,0,0,.125-.09.105.105,0,0,0-.09-.122,14.728,14.728,0,0,0-3.189-.1.108.108,0,0,0,0,.213Z" transform="translate(-447.837 -313.303)" fill="#fff"/>
      </g>
    </g>
    <g id="freepik--Clouds--inject-2" transform="translate(44.553 54.157)" opacity="0.5">
      <g id="freepik--clouds--inject-2-2" data-name="freepik--clouds--inject-2">
        <path id="freepik--Cloud--inject-2" d="M136.647,135.248l-1.222.706a1.221,1.221,0,0,0,0-.161v-.354c0-.63-.442-.885-.977-.569a1.923,1.923,0,0,0-.589.564c-.088-.792-.711-1.087-1.466-.65a3.26,3.26,0,0,0-1.466,2.558v.518a1.418,1.418,0,0,0,.125.613l-1.014.586a1.222,1.222,0,0,0-.547.948c0,.349.244.489.547.318l6.62-3.822a1.222,1.222,0,0,0,.547-.948C137.19,135.216,136.945,135.074,136.647,135.248Z" transform="translate(-129.49 -134.581)" fill="#ebebeb"/>
        <path id="freepik--cloud--inject-2-2" data-name="freepik--cloud--inject-2" d="M163.281,148.668l-.9.518a1.034,1.034,0,0,0,0-.12v-.259c0-.462-.325-.65-.733-.418a1.388,1.388,0,0,0-.43.415c-.066-.582-.52-.8-1.075-.489a2.4,2.4,0,0,0-1.083,1.877v.389a1.022,1.022,0,0,0,.09.45l-.733.43a.88.88,0,0,0-.4.694c0,.257.178.359.4.232l4.86-2.788a.88.88,0,0,0,.4-.694C163.682,148.644,163.5,148.541,163.281,148.668Z" transform="translate(-151.048 -144.854)" fill="#ebebeb"/>
      </g>
    </g>
    <g id="freepik--Device--inject-2" transform="translate(19.997 49.93)">
      <g id="freepik--device--inject-2-2" data-name="freepik--device--inject-2">
        <g id="freepik--device--inject-2-3" data-name="freepik--device--inject-2" transform="translate(0 16.402)">
          <g id="freepik--device--inject-2-4" data-name="freepik--device--inject-2">
            <path id="Path_21372" data-name="Path 21372" d="M133.362,285.7c.52.4.464.977-.166,1.337l-34.5,19.92a2.786,2.786,0,0,1-2.51,0L30.251,268.889c-.64-.369-.692-.948-.149-1.349a2.791,2.791,0,0,0-1.1,2.067v1.659a2.761,2.761,0,0,0,1.256,2.175L96.18,311.515a2.773,2.773,0,0,0,2.512,0l34.5-19.915a2.764,2.764,0,0,0,1.254-2.172v-1.662a2.805,2.805,0,0,0-1.085-2.065Z" transform="translate(-29 -247.224)" fill="#455a64"/>
            <path id="Path_21373" data-name="Path 21373" d="M135.455,222.769,69.519,184.7a2.793,2.793,0,0,0-2.51,0l-34.5,19.92a.763.763,0,0,0,0,1.447l65.934,38.069a2.786,2.786,0,0,0,2.51,0l34.5-19.92A.764.764,0,0,0,135.455,222.769Z" transform="translate(-31.259 -184.402)" fill="#37474f"/>
            <path id="Path_21374" data-name="Path 21374" d="M30.1,267.54a2.791,2.791,0,0,0-1.1,2.067v1.659a2.766,2.766,0,0,0,1.256,2.175L96.18,311.515a2.575,2.575,0,0,0,1.258.3v-4.56a2.585,2.585,0,0,1-1.256-.3L30.251,268.889C29.611,268.52,29.56,267.941,30.1,267.54Z" transform="translate(-29 -247.224)" fill="#263238"/>
            <path id="Path_21375" data-name="Path 21375" d="M98.374,237.877a.387.387,0,0,0,0-.733,1.4,1.4,0,0,0-1.276,0,.386.386,0,0,0,0,.733,1.412,1.412,0,0,0,1.276,0Z" transform="translate(-80.257 -224.139)"/>
            <path id="Path_21376" data-name="Path 21376" d="M106.405,225.079l4.924-2.842c.3-.169.31-.437.034-.6a1.146,1.146,0,0,0-1.031.02l-4.924,2.844c-.293.169-.308.435-.034.594A1.139,1.139,0,0,0,106.405,225.079Z" transform="translate(-86.563 -212.455)"/>
            <path id="Path_21377" data-name="Path 21377" d="M88.009,197.57a1.733,1.733,0,0,0-1.8.2L53.95,216.376a.655.655,0,0,0,0,1.241l58.522,33.8a2.385,2.385,0,0,0,2.153,0L146.881,232.8a.655.655,0,0,0,0-1.241Z" transform="translate(-47.516 -194.218)" fill="#ffa726"/>
            <path id="Path_21378" data-name="Path 21378" d="M88.009,197.57a1.733,1.733,0,0,0-1.8.2L53.95,216.376a.655.655,0,0,0,0,1.241l58.522,33.8a2.385,2.385,0,0,0,2.153,0L146.881,232.8a.655.655,0,0,0,0-1.241Z" transform="translate(-47.516 -194.218)" fill="#fff" opacity="0.96"/>
          </g>
        </g>
        <g id="Group_10424" data-name="Group 10424" transform="translate(7.331 20.453)" opacity="0.4">
          <path id="Path_21379" data-name="Path 21379" d="M271.1,389.716,283.26,382.7l-2.04-.589A24.735,24.735,0,0,0,262,384.457h0Z" transform="translate(-212.394 -337.12)" fill="#ffa726"/>
          <path id="Path_21380" data-name="Path 21380" d="M353.946,328.489l18.149-10.478L359.947,311l-7.167,17.154Z" transform="translate(-280.991 -284.115)" fill="#ffa726"/>
          <path id="Path_21381" data-name="Path 21381" d="M314.036,301.654l-7.086,17.763a24.62,24.62,0,0,0-12.25-.792l6.842-16.846,9.941-1.6Z" transform="translate(-237.104 -275.939)" fill="#ffa726"/>
          <path id="Path_21382" data-name="Path 21382" d="M219.893,352.486l2.483-6.109-19.288-2.287-3.238,3.6,13.44,7.761A27.537,27.537,0,0,1,219.893,352.486Z" transform="translate(-165.432 -309.119)" fill="#ffa726"/>
          <path id="Path_21383" data-name="Path 21383" d="M326.583,282.41l6.036,3.477-7.969,1.288Z" transform="translate(-259.735 -262.512)" fill="#ffa726"/>
          <ellipse id="Ellipse_646" data-name="Ellipse 646" cx="2.148" cy="1.239" rx="2.148" ry="1.239" transform="translate(26.196 20.385)" fill="#ffa726"/>
          <path id="Path_21384" data-name="Path 21384" d="M211.681,296.276l-29.834-3.536c-.315.718-.853.88-2.106,1.153l8.323,9.53,19.842,2.331Z" transform="translate(-150.236 -270.317)" fill="#ffa726"/>
          <path id="Path_21385" data-name="Path 21385" d="M200.15,264.854l-2.2,5.315L184.4,268.561a3.091,3.091,0,0,0-1.163-.75l1.86-4.741Z" transform="translate(-152.88 -247.898)" fill="#ffa726"/>
          <path id="Path_21386" data-name="Path 21386" d="M269.946,271.472l-2.329,5.745-14.857-1.762,2.334-5.745Z" transform="translate(-205.412 -252.915)" fill="#ffa726"/>
          <path id="Path_21387" data-name="Path 21387" d="M222.411,226.4,197.8,212.19l-4.262,10.784Z" transform="translate(-160.663 -209.451)" fill="#ffa726"/>
          <path id="Path_21388" data-name="Path 21388" d="M131.387,295.508l9.088,10.393-3.238,3.592L119.67,299.352,130.5,295.1A4.117,4.117,0,0,0,131.387,295.508Z" transform="translate(-104.845 -272.101)" fill="#ffa726"/>
          <path id="Path_21389" data-name="Path 21389" d="M130.211,214.266l4.555-11.534-3.037-1.752L112.38,212.15Z" transform="translate(-99.336 -200.98)" fill="#ffa726"/>
          <path id="Path_21390" data-name="Path 21390" d="M69.454,252.7,59,258.763l13.159,7.6,11.607-4.574c-.024-.557.244-1.092,1.095-1.591a5.3,5.3,0,0,1,2.536-.577L89.208,255Z" transform="translate(-59 -240.062)" fill="#ffa726"/>
        </g>
        <g id="freepik--City--inject-2" transform="translate(9.171)">
          <path id="Path_21391" data-name="Path 21391" d="M197.69,242.549V238.93l5.589.662v3.617Z" transform="translate(-165.639 -209.203)" fill="#ffa726"/>
          <path id="Path_21392" data-name="Path 21392" d="M220.56,231.673l1.151-3.223v3.99l-1.151,2.849Z" transform="translate(-182.921 -201.284)" fill="#ffa726"/>
          <path id="Path_21393" data-name="Path 21393" d="M204.43,226.41l-5.469-.66-1.271,3.221,5.589.662Z" transform="translate(-165.639 -199.244)" fill="#ffa726"/>
          <path id="Path_21394" data-name="Path 21394" d="M197.69,242.549V238.93l5.589.662v3.617Z" transform="translate(-165.639 -209.203)" fill="#fff" opacity="0.8"/>
          <path id="Path_21395" data-name="Path 21395" d="M220.56,231.673l1.151-3.223v3.99l-1.151,2.849Z" transform="translate(-182.921 -201.284)" fill="#fff" opacity="0.75"/>
          <path id="Path_21396" data-name="Path 21396" d="M204.43,226.41l-5.469-.66-1.271,3.221,5.589.662Z" transform="translate(-165.639 -199.244)" fill="#fff" opacity="0.9"/>
          <path id="Path_21397" data-name="Path 21397" d="M212.68,280.35v-1.62l5.591.66v1.623Z" transform="translate(-176.966 -239.278)" fill="#ffa726"/>
          <path id="Path_21398" data-name="Path 21398" d="M235.56,272.793l1-2.793v1.994l-1,2.422Z" transform="translate(-194.255 -232.681)" fill="#ffa726"/>
          <path id="Path_21399" data-name="Path 21399" d="M219.268,267.96l-5.471-.66-1.117,2.793,5.591.66Z" transform="translate(-176.966 -230.641)" fill="#ffa726"/>
          <path id="Path_21400" data-name="Path 21400" d="M212.68,280.35v-1.62l5.591.66v1.623Z" transform="translate(-176.966 -239.278)" fill="#fff" opacity="0.8"/>
          <path id="Path_21401" data-name="Path 21401" d="M235.56,272.793l1-2.793v1.994l-1,2.422Z" transform="translate(-194.255 -232.681)" fill="#fff" opacity="0.75"/>
          <path id="Path_21402" data-name="Path 21402" d="M219.268,267.96l-5.471-.66-1.117,2.793,5.591.66Z" transform="translate(-176.966 -230.641)" fill="#fff" opacity="0.9"/>
          <path id="Path_21403" data-name="Path 21403" d="M256.73,361.487V357.87l5.589.66v3.619Z" transform="translate(-210.252 -299.079)" fill="#ffa726"/>
          <path id="Path_21404" data-name="Path 21404" d="M279.6,350.611l1.153-3.221v3.99L279.6,354.23Z" transform="translate(-227.534 -291.16)" fill="#ffa726"/>
          <path id="Path_21405" data-name="Path 21405" d="M263.472,345.35,258,344.69l-1.273,3.221,5.589.66Z" transform="translate(-210.252 -289.12)" fill="#ffa726"/>
          <path id="Path_21406" data-name="Path 21406" d="M256.73,361.487V357.87l5.589.66v3.619Z" transform="translate(-210.252 -299.079)" fill="#fff" opacity="0.8"/>
          <path id="Path_21407" data-name="Path 21407" d="M279.6,350.611l1.153-3.221v3.99L279.6,354.23Z" transform="translate(-227.534 -291.16)" fill="#fff" opacity="0.75"/>
          <path id="Path_21408" data-name="Path 21408" d="M263.472,345.35,258,344.69l-1.273,3.221,5.589.66Z" transform="translate(-210.252 -289.12)" fill="#fff" opacity="0.9"/>
          <path id="Path_21409" data-name="Path 21409" d="M256.34,256.282V254.95l2.83.335v1.332Z" transform="translate(-209.958 -221.309)" fill="#ffa726"/>
          <path id="Path_21410" data-name="Path 21410" d="M267.92,251.272l.582-1.632v1.522l-.582,1.442Z" transform="translate(-218.708 -217.296)" fill="#ffa726"/>
          <path id="Path_21411" data-name="Path 21411" d="M259.751,248.612l-2.769-.332-.643,1.63,2.83.335Z" transform="translate(-209.958 -216.269)" fill="#ffa726"/>
          <path id="Path_21412" data-name="Path 21412" d="M256.34,256.282V254.95l2.83.335v1.332Z" transform="translate(-209.958 -221.309)" fill="#fff" opacity="0.8"/>
          <path id="Path_21413" data-name="Path 21413" d="M267.92,251.272l.582-1.632v1.522l-.582,1.442Z" transform="translate(-218.708 -217.296)" fill="#fff" opacity="0.75"/>
          <path id="Path_21414" data-name="Path 21414" d="M259.751,248.612l-2.769-.332-.643,1.63,2.83.335Z" transform="translate(-209.958 -216.269)" fill="#fff" opacity="0.9"/>
          <path id="Path_21415" data-name="Path 21415" d="M171.96,228.68v-1.94l4.115.486v1.94Z" transform="translate(-146.197 -199.992)" fill="#ffa726"/>
          <path id="Path_21416" data-name="Path 21416" d="M188.8,221.4l.848-2.37v2.214l-.848,2.1Z" transform="translate(-158.922 -194.166)" fill="#ffa726"/>
          <path id="Path_21417" data-name="Path 21417" d="M176.923,217.526l-4.027-.486-.936,2.37,4.115.486Z" transform="translate(-146.197 -192.662)" fill="#ffa726"/>
          <path id="Path_21418" data-name="Path 21418" d="M171.96,228.68v-1.94l4.115.486v1.94Z" transform="translate(-146.197 -199.992)" fill="#fff" opacity="0.8"/>
          <path id="Path_21419" data-name="Path 21419" d="M188.8,221.4l.848-2.37v2.214l-.848,2.1Z" transform="translate(-158.922 -194.166)" fill="#fff" opacity="0.75"/>
          <path id="Path_21420" data-name="Path 21420" d="M176.923,217.526l-4.027-.486-.936,2.37,4.115.486Z" transform="translate(-146.197 -192.662)" fill="#fff" opacity="0.9"/>
          <path id="Path_21421" data-name="Path 21421" d="M258.35,285.958V284.23l3.67.432v1.73Z" transform="translate(-211.476 -243.434)" fill="#ffa726"/>
          <path id="Path_21422" data-name="Path 21422" d="M273.37,279.464l.755-2.114v1.974l-.755,1.869Z" transform="translate(-222.826 -238.235)" fill="#ffa726"/>
          <path id="Path_21423" data-name="Path 21423" d="M262.775,276.012l-3.59-.432-.836,2.114,3.67.432Z" transform="translate(-211.476 -236.897)" fill="#ffa726"/>
          <path id="Path_21424" data-name="Path 21424" d="M258.35,285.958V284.23l3.67.432v1.73Z" transform="translate(-211.476 -243.434)" fill="#fff" opacity="0.8"/>
          <path id="Path_21425" data-name="Path 21425" d="M273.37,279.464l.755-2.114v1.974l-.755,1.869Z" transform="translate(-222.826 -238.235)" fill="#fff" opacity="0.75"/>
          <path id="Path_21426" data-name="Path 21426" d="M262.775,276.012l-3.59-.432-.836,2.114,3.67.432Z" transform="translate(-211.476 -236.897)" fill="#fff" opacity="0.9"/>
          <path id="Path_21427" data-name="Path 21427" d="M190.23,277.359V275.58l3.775.445v1.781Z" transform="translate(-160.002 -236.897)" fill="#ffa726"/>
          <path id="Path_21428" data-name="Path 21428" d="M205.68,270.675l.777-2.175v2.031l-.777,1.926Z" transform="translate(-171.677 -231.548)" fill="#ffa726"/>
          <path id="Path_21429" data-name="Path 21429" d="M194.782,267.125l-3.692-.445-.86,2.175,3.775.445Z" transform="translate(-160.002 -230.172)" fill="#ffa726"/>
          <path id="Path_21430" data-name="Path 21430" d="M190.23,277.359V275.58l3.775.445v1.781Z" transform="translate(-160.002 -236.897)" fill="#fff" opacity="0.8"/>
          <path id="Path_21431" data-name="Path 21431" d="M205.68,270.675l.777-2.175v2.031l-.777,1.926Z" transform="translate(-171.677 -231.548)" fill="#fff" opacity="0.75"/>
          <path id="Path_21432" data-name="Path 21432" d="M194.782,267.125l-3.692-.445-.86,2.175,3.775.445Z" transform="translate(-160.002 -230.172)" fill="#fff" opacity="0.9"/>
          <path id="Path_21433" data-name="Path 21433" d="M277.78,288.19v-1.73l3.67.435v1.73Z" transform="translate(-226.158 -245.119)" fill="#ffa726"/>
          <path id="Path_21434" data-name="Path 21434" d="M292.8,281.7l.755-2.114v1.972l-.755,1.872Z" transform="translate(-237.508 -239.928)" fill="#ffa726"/>
          <path id="Path_21435" data-name="Path 21435" d="M282.205,278.245l-3.59-.435-.836,2.114,3.67.435Z" transform="translate(-226.158 -238.583)" fill="#ffa726"/>
          <path id="Path_21436" data-name="Path 21436" d="M277.78,288.19v-1.73l3.67.435v1.73Z" transform="translate(-226.158 -245.119)" fill="#fff" opacity="0.8"/>
          <path id="Path_21437" data-name="Path 21437" d="M292.8,281.7l.755-2.114v1.972l-.755,1.872Z" transform="translate(-237.508 -239.928)" fill="#fff" opacity="0.75"/>
          <path id="Path_21438" data-name="Path 21438" d="M282.205,278.245l-3.59-.435-.836,2.114,3.67.435Z" transform="translate(-226.158 -238.583)" fill="#fff" opacity="0.9"/>
          <path id="Path_21439" data-name="Path 21439" d="M297.21,290.43V288.7l3.668.435v1.728Z" transform="translate(-240.84 -246.811)" fill="#ffa726"/>
          <path id="Path_21440" data-name="Path 21440" d="M312.22,283.936l.758-2.116v1.974l-.758,1.869Z" transform="translate(-252.183 -241.613)" fill="#ffa726"/>
          <path id="Path_21441" data-name="Path 21441" d="M301.635,280.483l-3.59-.433-.836,2.114,3.668.435Z" transform="translate(-240.84 -240.275)" fill="#ffa726"/>
          <path id="Path_21442" data-name="Path 21442" d="M297.21,290.43V288.7l3.668.435v1.728Z" transform="translate(-240.84 -246.811)" fill="#fff" opacity="0.8"/>
          <path id="Path_21443" data-name="Path 21443" d="M312.22,283.936l.758-2.116v1.974l-.758,1.869Z" transform="translate(-252.183 -241.613)" fill="#fff" opacity="0.75"/>
          <path id="Path_21444" data-name="Path 21444" d="M301.635,280.483l-3.59-.433-.836,2.114,3.668.435Z" transform="translate(-240.84 -240.275)" fill="#fff" opacity="0.9"/>
          <path id="Path_21445" data-name="Path 21445" d="M117.51,266.82v-1.73l3.67.435v1.73Z" transform="translate(-105.052 -228.971)" fill="#ffa726"/>
          <path id="Path_21446" data-name="Path 21446" d="M132.53,260.334l.755-2.114v1.972l-.755,1.872Z" transform="translate(-116.402 -223.78)" fill="#ffa726"/>
          <path id="Path_21447" data-name="Path 21447" d="M121.935,256.875l-3.59-.435-.836,2.114,3.67.435Z" transform="translate(-105.052 -222.435)" fill="#ffa726"/>
          <path id="Path_21448" data-name="Path 21448" d="M117.51,266.82v-1.73l3.67.435v1.73Z" transform="translate(-105.052 -228.971)" fill="#fff" opacity="0.8"/>
          <path id="Path_21449" data-name="Path 21449" d="M132.53,260.334l.755-2.114v1.972l-.755,1.872Z" transform="translate(-116.402 -223.78)" fill="#fff" opacity="0.75"/>
          <path id="Path_21450" data-name="Path 21450" d="M121.935,256.875l-3.59-.435-.836,2.114,3.67.435Z" transform="translate(-105.052 -222.435)" fill="#fff" opacity="0.9"/>
          <path id="Path_21451" data-name="Path 21451" d="M136.94,269.06v-1.73l3.67.435v1.728Z" transform="translate(-119.734 -230.663)" fill="#ffa726"/>
          <path id="Path_21452" data-name="Path 21452" d="M151.96,262.566l.755-2.116v1.974l-.755,1.869Z" transform="translate(-131.084 -225.465)" fill="#ffa726"/>
          <path id="Path_21453" data-name="Path 21453" d="M141.365,259.112l-3.59-.432-.836,2.114,3.67.435Z" transform="translate(-119.734 -224.127)" fill="#ffa726"/>
          <path id="Path_21454" data-name="Path 21454" d="M136.94,269.06v-1.73l3.67.435v1.728Z" transform="translate(-119.734 -230.663)" fill="#fff" opacity="0.8"/>
          <path id="Path_21455" data-name="Path 21455" d="M151.96,262.566l.755-2.116v1.974l-.755,1.869Z" transform="translate(-131.084 -225.465)" fill="#fff" opacity="0.75"/>
          <path id="Path_21456" data-name="Path 21456" d="M141.365,259.112l-3.59-.432-.836,2.114,3.67.435Z" transform="translate(-119.734 -224.127)" fill="#fff" opacity="0.9"/>
          <path id="Path_21457" data-name="Path 21457" d="M156.37,271.3V269.57l3.668.435v1.728Z" transform="translate(-134.416 -232.356)" fill="#ffa726"/>
          <path id="Path_21458" data-name="Path 21458" d="M171.38,264.806l.758-2.116v1.974l-.758,1.869Z" transform="translate(-145.759 -227.157)" fill="#ffa726"/>
          <path id="Path_21459" data-name="Path 21459" d="M160.8,261.353l-3.592-.432-.833,2.114,3.668.435Z" transform="translate(-134.416 -225.82)" fill="#ffa726"/>
          <path id="Path_21460" data-name="Path 21460" d="M156.37,271.3V269.57l3.668.435v1.728Z" transform="translate(-134.416 -232.356)" fill="#fff" opacity="0.8"/>
          <path id="Path_21461" data-name="Path 21461" d="M171.38,264.806l.758-2.116v1.974l-.758,1.869Z" transform="translate(-145.759 -227.157)" fill="#fff" opacity="0.75"/>
          <path id="Path_21462" data-name="Path 21462" d="M160.8,261.353l-3.592-.432-.833,2.114,3.668.435Z" transform="translate(-134.416 -225.82)" fill="#fff" opacity="0.9"/>
          <path id="Path_21463" data-name="Path 21463" d="M350.25,246.279V245.25l3.111.367v1.029Z" transform="translate(-280.92 -213.979)" fill="#ffa726"/>
          <path id="Path_21464" data-name="Path 21464" d="M350.25,246.279V245.25l3.111.367v1.029Z" transform="translate(-280.92 -213.979)" fill="#fff" opacity="0.8"/>
          <path id="Path_21465" data-name="Path 21465" d="M362.98,242.624l.455-1.334v1.251l-.455,1.112Z" transform="translate(-290.539 -210.987)" fill="#ffa726"/>
          <path id="Path_21466" data-name="Path 21466" d="M362.98,242.624l.455-1.334v1.251l-.455,1.112Z" transform="translate(-290.539 -210.987)" fill="#fff" opacity="0.75"/>
          <path id="Path_21467" data-name="Path 21467" d="M353.815,240.164l-3.04-.364-.525,1.332,3.111.367Z" transform="translate(-280.92 -209.861)" fill="#ffa726"/>
          <path id="Path_21468" data-name="Path 21468" d="M353.815,240.164l-3.04-.364-.525,1.332,3.111.367Z" transform="translate(-280.92 -209.861)" fill="#fff" opacity="0.9"/>
          <path id="Path_21469" data-name="Path 21469" d="M259.99,333.18v-1.73l3.67.435v1.73Z" transform="translate(-212.716 -279.115)" fill="#ffa726"/>
          <path id="Path_21470" data-name="Path 21470" d="M275.01,326.686l.755-2.116v1.974l-.755,1.872Z" transform="translate(-224.065 -273.916)" fill="#ffa726"/>
          <path id="Path_21471" data-name="Path 21471" d="M264.415,323.233l-3.59-.433-.836,2.114,3.67.435Z" transform="translate(-212.716 -272.579)" fill="#ffa726"/>
          <path id="Path_21472" data-name="Path 21472" d="M259.99,333.18v-1.73l3.67.435v1.73Z" transform="translate(-212.716 -279.115)" fill="#fff" opacity="0.8"/>
          <path id="Path_21473" data-name="Path 21473" d="M275.01,326.686l.755-2.116v1.974l-.755,1.872Z" transform="translate(-224.065 -273.916)" fill="#fff" opacity="0.75"/>
          <path id="Path_21474" data-name="Path 21474" d="M264.415,323.233l-3.59-.433-.836,2.114,3.67.435Z" transform="translate(-212.716 -272.579)" fill="#fff" opacity="0.9"/>
          <path id="Path_21475" data-name="Path 21475" d="M278.73,335.418V333.69l3.67.432v1.73Z" transform="translate(-226.876 -280.808)" fill="#ffa726"/>
          <path id="Path_21476" data-name="Path 21476" d="M293.75,328.924l.758-2.114v1.972l-.758,1.872Z" transform="translate(-238.226 -275.609)" fill="#ffa726"/>
          <path id="Path_21477" data-name="Path 21477" d="M283.158,325.473l-3.592-.433-.836,2.114,3.67.432Z" transform="translate(-226.876 -274.271)" fill="#ffa726"/>
          <path id="Path_21478" data-name="Path 21478" d="M278.73,335.418V333.69l3.67.432v1.73Z" transform="translate(-226.876 -280.808)" fill="#fff" opacity="0.8"/>
          <path id="Path_21479" data-name="Path 21479" d="M293.75,328.924l.758-2.114v1.972l-.758,1.872Z" transform="translate(-238.226 -275.609)" fill="#fff" opacity="0.75"/>
          <path id="Path_21480" data-name="Path 21480" d="M283.158,325.473l-3.592-.433-.836,2.114,3.67.432Z" transform="translate(-226.876 -274.271)" fill="#fff" opacity="0.9"/>
          <path id="Path_21481" data-name="Path 21481" d="M212.55,356.9V355.17l3.67.433v1.73Z" transform="translate(-176.868 -297.039)" fill="#ffa726"/>
          <path id="Path_21482" data-name="Path 21482" d="M227.57,350.4l.755-2.114v1.974l-.755,1.869Z" transform="translate(-188.218 -291.84)" fill="#ffa726"/>
          <path id="Path_21483" data-name="Path 21483" d="M216.975,346.945l-3.59-.435-.836,2.116,3.67.433Z" transform="translate(-176.868 -290.495)" fill="#ffa726"/>
          <path id="Path_21484" data-name="Path 21484" d="M212.55,356.9V355.17l3.67.433v1.73Z" transform="translate(-176.868 -297.039)" fill="#fff" opacity="0.8"/>
          <path id="Path_21485" data-name="Path 21485" d="M227.57,350.4l.755-2.114v1.974l-.755,1.869Z" transform="translate(-188.218 -291.84)" fill="#fff" opacity="0.75"/>
          <path id="Path_21486" data-name="Path 21486" d="M216.975,346.945l-3.59-.435-.836,2.116,3.67.433Z" transform="translate(-176.868 -290.495)" fill="#fff" opacity="0.9"/>
          <path id="Path_21487" data-name="Path 21487" d="M231.29,359.13V357.4l3.67.435v1.728Z" transform="translate(-191.029 -298.724)" fill="#ffa726"/>
          <path id="Path_21488" data-name="Path 21488" d="M246.31,352.636l.758-2.116v1.974l-.758,1.869Z" transform="translate(-202.379 -293.525)" fill="#ffa726"/>
          <path id="Path_21489" data-name="Path 21489" d="M235.718,349.183l-3.592-.433-.836,2.114,3.67.435Z" transform="translate(-191.029 -292.187)" fill="#ffa726"/>
          <path id="Path_21490" data-name="Path 21490" d="M231.29,359.13V357.4l3.67.435v1.728Z" transform="translate(-191.029 -298.724)" fill="#fff" opacity="0.8"/>
          <path id="Path_21491" data-name="Path 21491" d="M246.31,352.636l.758-2.116v1.974l-.758,1.869Z" transform="translate(-202.379 -293.525)" fill="#fff" opacity="0.75"/>
          <path id="Path_21492" data-name="Path 21492" d="M235.718,349.183l-3.592-.433-.836,2.114,3.67.435Z" transform="translate(-191.029 -292.187)" fill="#fff" opacity="0.9"/>
          <path id="Path_21493" data-name="Path 21493" d="M345.25,323.3v-1.73l3.668.435v1.728Z" transform="translate(-277.141 -271.649)" fill="#ffa726"/>
          <path id="Path_21494" data-name="Path 21494" d="M360.26,316.806l.758-2.116v1.974l-.758,1.869Z" transform="translate(-288.483 -266.45)" fill="#ffa726"/>
          <path id="Path_21495" data-name="Path 21495" d="M349.675,313.352l-3.592-.432-.833,2.114,3.668.435Z" transform="translate(-277.141 -265.113)" fill="#ffa726"/>
          <path id="Path_21496" data-name="Path 21496" d="M345.25,323.3v-1.73l3.668.435v1.728Z" transform="translate(-277.141 -271.649)" fill="#fff" opacity="0.8"/>
          <path id="Path_21497" data-name="Path 21497" d="M360.26,316.806l.758-2.116v1.974l-.758,1.869Z" transform="translate(-288.483 -266.45)" fill="#fff" opacity="0.75"/>
          <path id="Path_21498" data-name="Path 21498" d="M349.675,313.352l-3.592-.432-.833,2.114,3.668.435Z" transform="translate(-277.141 -265.113)" fill="#fff" opacity="0.9"/>
          <path id="Path_21499" data-name="Path 21499" d="M339.36,337.88v-1.73l3.668.435v1.73Z" transform="translate(-272.691 -282.666)" fill="#ffa726"/>
          <path id="Path_21500" data-name="Path 21500" d="M354.37,331.386l.757-2.116v1.974l-.757,1.872Z" transform="translate(-284.033 -277.468)" fill="#ffa726"/>
          <path id="Path_21501" data-name="Path 21501" d="M343.785,327.932l-3.592-.432-.833,2.114,3.668.435Z" transform="translate(-272.691 -276.13)" fill="#ffa726"/>
          <path id="Path_21502" data-name="Path 21502" d="M339.36,337.88v-1.73l3.668.435v1.73Z" transform="translate(-272.691 -282.666)" fill="#fff" opacity="0.8"/>
          <path id="Path_21503" data-name="Path 21503" d="M354.37,331.386l.757-2.116v1.974l-.757,1.872Z" transform="translate(-284.033 -277.468)" fill="#fff" opacity="0.75"/>
          <path id="Path_21504" data-name="Path 21504" d="M343.785,327.932l-3.592-.432-.833,2.114,3.668.435Z" transform="translate(-272.691 -276.13)" fill="#fff" opacity="0.9"/>
          <path id="Path_21505" data-name="Path 21505" d="M333.46,352.46v-1.73l3.67.435v1.73Z" transform="translate(-268.232 -293.684)" fill="#ffa726"/>
          <path id="Path_21506" data-name="Path 21506" d="M348.48,345.966l.758-2.116v1.974l-.758,1.872Z" transform="translate(-279.582 -288.485)" fill="#ffa726"/>
          <path id="Path_21507" data-name="Path 21507" d="M337.888,342.513l-3.592-.433-.836,2.114,3.67.435Z" transform="translate(-268.232 -287.147)" fill="#ffa726"/>
          <path id="Path_21508" data-name="Path 21508" d="M333.46,352.46v-1.73l3.67.435v1.73Z" transform="translate(-268.232 -293.684)" fill="#fff" opacity="0.8"/>
          <path id="Path_21509" data-name="Path 21509" d="M348.48,345.966l.758-2.116v1.974l-.758,1.872Z" transform="translate(-279.582 -288.485)" fill="#fff" opacity="0.75"/>
          <path id="Path_21510" data-name="Path 21510" d="M337.888,342.513l-3.592-.433-.836,2.114,3.67.435Z" transform="translate(-268.232 -287.147)" fill="#fff" opacity="0.9"/>
          <path id="Path_21511" data-name="Path 21511" d="M327.57,367.048V365.32l3.67.432v1.73Z" transform="translate(-263.782 -304.708)" fill="#ffa726"/>
          <path id="Path_21512" data-name="Path 21512" d="M342.59,360.554l.757-2.114v1.972l-.757,1.872Z" transform="translate(-275.131 -299.51)" fill="#ffa726"/>
          <path id="Path_21513" data-name="Path 21513" d="M332,357.095l-3.592-.435-.836,2.116,3.67.433Z" transform="translate(-263.782 -298.165)" fill="#ffa726"/>
          <path id="Path_21514" data-name="Path 21514" d="M327.57,367.048V365.32l3.67.432v1.73Z" transform="translate(-263.782 -304.708)" fill="#fff" opacity="0.8"/>
          <path id="Path_21515" data-name="Path 21515" d="M342.59,360.554l.757-2.114v1.972l-.757,1.872Z" transform="translate(-275.131 -299.51)" fill="#fff" opacity="0.75"/>
          <path id="Path_21516" data-name="Path 21516" d="M332,357.095l-3.592-.435-.836,2.116,3.67.433Z" transform="translate(-263.782 -298.165)" fill="#fff" opacity="0.9"/>
          <path id="Path_21517" data-name="Path 21517" d="M319.75,320.338V318.61l3.67.433v1.73Z" transform="translate(-257.873 -269.413)" fill="#ffa726"/>
          <path id="Path_21518" data-name="Path 21518" d="M334.77,313.844l.758-2.114V313.7l-.758,1.872Z" transform="translate(-269.222 -264.214)" fill="#ffa726"/>
          <path id="Path_21519" data-name="Path 21519" d="M324.178,310.385l-3.592-.435-.836,2.116,3.67.433Z" transform="translate(-257.873 -262.869)" fill="#ffa726"/>
          <path id="Path_21520" data-name="Path 21520" d="M319.75,320.338V318.61l3.67.433v1.73Z" transform="translate(-257.873 -269.413)" fill="#fff" opacity="0.8"/>
          <path id="Path_21521" data-name="Path 21521" d="M334.77,313.844l.758-2.114V313.7l-.758,1.872Z" transform="translate(-269.222 -264.214)" fill="#fff" opacity="0.75"/>
          <path id="Path_21522" data-name="Path 21522" d="M324.178,310.385l-3.592-.435-.836,2.116,3.67.433Z" transform="translate(-257.873 -262.869)" fill="#fff" opacity="0.9"/>
          <path id="Path_21523" data-name="Path 21523" d="M313.86,334.918V333.19l3.67.433v1.73Z" transform="translate(-253.422 -280.43)" fill="#ffa726"/>
          <path id="Path_21524" data-name="Path 21524" d="M328.88,328.424l.758-2.114v1.974l-.758,1.869Z" transform="translate(-264.772 -275.231)" fill="#ffa726"/>
          <path id="Path_21525" data-name="Path 21525" d="M318.288,324.973l-3.592-.432-.836,2.114,3.67.432Z" transform="translate(-253.422 -273.893)" fill="#ffa726"/>
          <path id="Path_21526" data-name="Path 21526" d="M313.86,334.918V333.19l3.67.433v1.73Z" transform="translate(-253.422 -280.43)" fill="#fff" opacity="0.8"/>
          <path id="Path_21527" data-name="Path 21527" d="M328.88,328.424l.758-2.114v1.974l-.758,1.869Z" transform="translate(-264.772 -275.231)" fill="#fff" opacity="0.75"/>
          <path id="Path_21528" data-name="Path 21528" d="M318.288,324.973l-3.592-.432-.836,2.114,3.67.432Z" transform="translate(-253.422 -273.893)" fill="#fff" opacity="0.9"/>
          <path id="Path_21529" data-name="Path 21529" d="M307.97,349.5v-1.73l3.67.435v1.728Z" transform="translate(-248.971 -291.447)" fill="#ffa726"/>
          <path id="Path_21530" data-name="Path 21530" d="M322.99,343.006l.758-2.116v1.974l-.758,1.869Z" transform="translate(-260.321 -286.248)" fill="#ffa726"/>
          <path id="Path_21531" data-name="Path 21531" d="M312.4,339.553l-3.592-.433-.836,2.114,3.67.435Z" transform="translate(-248.971 -284.911)" fill="#ffa726"/>
          <path id="Path_21532" data-name="Path 21532" d="M307.97,349.5v-1.73l3.67.435v1.728Z" transform="translate(-248.971 -291.447)" fill="#fff" opacity="0.8"/>
          <path id="Path_21533" data-name="Path 21533" d="M322.99,343.006l.758-2.116v1.974l-.758,1.869Z" transform="translate(-260.321 -286.248)" fill="#fff" opacity="0.75"/>
          <path id="Path_21534" data-name="Path 21534" d="M312.4,339.553l-3.592-.433-.836,2.114,3.67.435Z" transform="translate(-248.971 -284.911)" fill="#fff" opacity="0.9"/>
          <path id="Path_21535" data-name="Path 21535" d="M302.08,364.08v-1.73l3.67.435v1.728Z" transform="translate(-244.52 -302.464)" fill="#ffa726"/>
          <path id="Path_21536" data-name="Path 21536" d="M317.1,357.586l.758-2.116v1.974l-.758,1.869Z" transform="translate(-255.87 -297.265)" fill="#ffa726"/>
          <path id="Path_21537" data-name="Path 21537" d="M306.508,354.133l-3.592-.432-.836,2.114,3.67.435Z" transform="translate(-244.52 -295.928)" fill="#ffa726"/>
          <path id="Path_21538" data-name="Path 21538" d="M302.08,364.08v-1.73l3.67.435v1.728Z" transform="translate(-244.52 -302.464)" fill="#fff" opacity="0.8"/>
          <path id="Path_21539" data-name="Path 21539" d="M317.1,357.586l.758-2.116v1.974l-.758,1.869Z" transform="translate(-255.87 -297.265)" fill="#fff" opacity="0.75"/>
          <path id="Path_21540" data-name="Path 21540" d="M306.508,354.133l-3.592-.432-.836,2.114,3.67.435Z" transform="translate(-244.52 -295.928)" fill="#fff" opacity="0.9"/>
          <path id="Path_21541" data-name="Path 21541" d="M370.13,348.149V346.79l2.888.342v1.359Z" transform="translate(-295.942 -290.706)" fill="#ffa726"/>
          <path id="Path_21542" data-name="Path 21542" d="M381.95,343.044l.594-1.664v1.552l-.594,1.471Z" transform="translate(-304.873 -286.618)" fill="#ffa726"/>
          <path id="Path_21543" data-name="Path 21543" d="M373.612,340.322l-2.825-.342-.657,1.664,2.888.342Z" transform="translate(-295.942 -285.561)" fill="#ffa726"/>
          <path id="Path_21544" data-name="Path 21544" d="M370.13,348.149V346.79l2.888.342v1.359Z" transform="translate(-295.942 -290.706)" fill="#fff" opacity="0.8"/>
          <path id="Path_21545" data-name="Path 21545" d="M381.95,343.044l.594-1.664v1.552l-.594,1.471Z" transform="translate(-304.873 -286.618)" fill="#fff" opacity="0.75"/>
          <path id="Path_21546" data-name="Path 21546" d="M373.612,340.322l-2.825-.342-.657,1.664,2.888.342Z" transform="translate(-295.942 -285.561)" fill="#fff" opacity="0.9"/>
          <path id="Path_21547" data-name="Path 21547" d="M364.23,364.541V363.18l2.886.342v1.359Z" transform="translate(-291.483 -303.091)" fill="#ffa726"/>
          <path id="Path_21548" data-name="Path 21548" d="M376.04,359.434l.6-1.664v1.552l-.6,1.471Z" transform="translate(-300.407 -299.003)" fill="#ffa726"/>
          <path id="Path_21549" data-name="Path 21549" d="M367.712,356.712l-2.825-.342-.657,1.664,2.886.342Z" transform="translate(-291.483 -297.945)" fill="#ffa726"/>
          <path id="Path_21550" data-name="Path 21550" d="M364.23,364.541V363.18l2.886.342v1.359Z" transform="translate(-291.483 -303.091)" fill="#fff" opacity="0.8"/>
          <path id="Path_21551" data-name="Path 21551" d="M376.04,359.434l.6-1.664v1.552l-.6,1.471Z" transform="translate(-300.407 -299.003)" fill="#fff" opacity="0.75"/>
          <path id="Path_21552" data-name="Path 21552" d="M367.712,356.712l-2.825-.342-.657,1.664,2.886.342Z" transform="translate(-291.483 -297.945)" fill="#fff" opacity="0.9"/>
          <path id="Path_21553" data-name="Path 21553" d="M237.38,315.56V309.08l4.55.538V316.1Z" transform="translate(-195.631 -262.211)" fill="#ffa726"/>
          <path id="Path_21554" data-name="Path 21554" d="M237.38,315.56V309.08l4.55.538V316.1Z" transform="translate(-195.631 -262.211)" fill="#fff" opacity="0.8"/>
          <path id="Path_21555" data-name="Path 21555" d="M256,306.391l.589-1.581v6.8L256,312.869Z" transform="translate(-209.701 -258.985)" fill="#ffa726"/>
          <path id="Path_21556" data-name="Path 21556" d="M256,306.391l.589-1.581v6.8L256,312.869Z" transform="translate(-209.701 -258.985)" fill="#fff" opacity="0.75"/>
          <path id="Path_21557" data-name="Path 21557" d="M242.519,303.163l-4.445-.533-.694,1.576,4.55.538Z" transform="translate(-195.631 -257.337)" fill="#ffa726"/>
          <path id="Path_21558" data-name="Path 21558" d="M242.519,303.163l-4.445-.533-.694,1.576,4.55.538Z" transform="translate(-195.631 -257.337)" fill="#fff" opacity="0.9"/>
          <path id="Path_21559" data-name="Path 21559" d="M143.26,222.773V215.11l2.622.293v7.661Z" transform="translate(-124.51 -191.204)" fill="#ffa726"/>
          <path id="Path_21560" data-name="Path 21560" d="M143.26,222.773V215.11l2.622.293v7.661Z" transform="translate(-124.51 -191.204)" fill="#fff" opacity="0.8"/>
          <path id="Path_21561" data-name="Path 21561" d="M153.99,211.421l.589-1.581v7.986l-.589,1.256Z" transform="translate(-132.618 -187.222)" fill="#ffa726"/>
          <path id="Path_21562" data-name="Path 21562" d="M153.99,211.421l.589-1.581v7.986l-.589,1.256Z" transform="translate(-132.618 -187.222)" fill="#fff" opacity="0.75"/>
          <path id="Path_21563" data-name="Path 21563" d="M146.471,208.948l-2.517-.288-.694,1.576,2.622.293Z" transform="translate(-124.51 -186.33)" fill="#ffa726"/>
          <path id="Path_21564" data-name="Path 21564" d="M146.471,208.948l-2.517-.288-.694,1.576,2.622.293Z" transform="translate(-124.51 -186.33)" fill="#fff" opacity="0.9"/>
          <path id="Path_21565" data-name="Path 21565" d="M155.19,224.477V217.72l1.388.149v6.759Z" transform="translate(-133.525 -193.176)" fill="#ffa726"/>
          <path id="Path_21566" data-name="Path 21566" d="M155.19,224.477V217.72l1.388.149v6.759Z" transform="translate(-133.525 -193.176)" fill="#fff" opacity="0.8"/>
          <path id="Path_21567" data-name="Path 21567" d="M160.87,216.192l.217-.692v7.033l-.217.418Z" transform="translate(-137.817 -191.499)" fill="#ffa726"/>
          <path id="Path_21568" data-name="Path 21568" d="M160.87,216.192l.217-.692v7.033l-.217.418Z" transform="translate(-137.817 -191.499)" fill="#fff" opacity="0.75"/>
          <path id="Path_21569" data-name="Path 21569" d="M156.8,215.039l-1.3-.149-.305.692,1.388.149Z" transform="translate(-133.525 -191.038)" fill="#ffa726"/>
          <path id="Path_21570" data-name="Path 21570" d="M156.8,215.039l-1.3-.149-.305.692,1.388.149Z" transform="translate(-133.525 -191.038)" fill="#fff" opacity="0.9"/>
          <path id="Path_21571" data-name="Path 21571" d="M215.12,312.91v-6.48l4.55.535v6.48Z" transform="translate(-178.81 -260.209)" fill="#ffa726"/>
          <path id="Path_21572" data-name="Path 21572" d="M215.12,312.91v-6.48l4.55.535v6.48Z" transform="translate(-178.81 -260.209)" fill="#fff" opacity="0.8"/>
          <path id="Path_21573" data-name="Path 21573" d="M233.74,303.739l.591-1.579v6.8l-.591,1.256Z" transform="translate(-192.88 -256.982)" fill="#ffa726"/>
          <path id="Path_21574" data-name="Path 21574" d="M233.74,303.739l.591-1.579v6.8l-.591,1.256Z" transform="translate(-192.88 -256.982)" fill="#fff" opacity="0.75"/>
          <path id="Path_21575" data-name="Path 21575" d="M220.261,300.513l-4.445-.533-.7,1.576,4.55.535Z" transform="translate(-178.81 -255.335)" fill="#ffa726"/>
          <path id="Path_21576" data-name="Path 21576" d="M220.261,300.513l-4.445-.533-.7,1.576,4.55.535Z" transform="translate(-178.81 -255.335)" fill="#fff" opacity="0.9"/>
          <path id="Path_21577" data-name="Path 21577" d="M166.21,243.46v-1.94l4.113.486v1.94Z" transform="translate(-141.852 -211.16)" fill="#ffa726"/>
          <path id="Path_21578" data-name="Path 21578" d="M183.04,236.18l.85-2.37v2.214l-.85,2.1Z" transform="translate(-154.569 -205.334)" fill="#ffa726"/>
          <path id="Path_21579" data-name="Path 21579" d="M171.173,232.306l-4.027-.486-.936,2.37,4.113.486Z" transform="translate(-141.852 -203.831)" fill="#ffa726"/>
          <path id="Path_21580" data-name="Path 21580" d="M166.21,243.46v-1.94l4.113.486v1.94Z" transform="translate(-141.852 -211.16)" fill="#fff" opacity="0.8"/>
          <path id="Path_21581" data-name="Path 21581" d="M183.04,236.18l.85-2.37v2.214l-.85,2.1Z" transform="translate(-154.569 -205.334)" fill="#fff" opacity="0.75"/>
          <path id="Path_21582" data-name="Path 21582" d="M171.173,232.306l-4.027-.486-.936,2.37,4.113.486Z" transform="translate(-141.852 -203.831)" fill="#fff" opacity="0.9"/>
          <path id="Path_21583" data-name="Path 21583" d="M135.108,301.892l-2.947,1.7-2.361-1.354,3.1-1.789Z" transform="translate(-114.339 -255.69)" fill="#ffa726"/>
          <path id="Path_21584" data-name="Path 21584" d="M135.108,301.892l-2.947,1.7-2.361-1.354,3.1-1.789Z" transform="translate(-114.339 -255.69)" fill="#fff" opacity="0.9"/>
          <path id="Path_21585" data-name="Path 21585" d="M129.8,309.173v-1.4l2.361,1.354v1.41Z" transform="translate(-114.339 -261.221)" fill="#ffa726"/>
          <path id="Path_21586" data-name="Path 21586" d="M129.8,309.173v-1.4l2.361,1.354v1.41Z" transform="translate(-114.339 -261.221)" fill="#fff" opacity="0.8"/>
          <path id="Path_21587" data-name="Path 21587" d="M142.407,306.35v1.41l-2.947,1.7v-1.41Z" transform="translate(-121.639 -260.148)" fill="#ffa726"/>
          <path id="Path_21588" data-name="Path 21588" d="M142.407,306.35v1.41l-2.947,1.7v-1.41Z" transform="translate(-121.639 -260.148)" fill="#fff" opacity="0.75"/>
          <path id="Path_21589" data-name="Path 21589" d="M148.6,309.849l-2.947,1.7L143.29,310.2l3.1-1.786Z" transform="translate(-124.533 -261.705)" fill="#ffa726"/>
          <path id="Path_21590" data-name="Path 21590" d="M148.6,309.849l-2.947,1.7L143.29,310.2l3.1-1.786Z" transform="translate(-124.533 -261.705)" fill="#fff" opacity="0.9"/>
          <path id="Path_21591" data-name="Path 21591" d="M143.29,317.123v-1.4l2.358,1.354v1.41Z" transform="translate(-124.533 -267.229)" fill="#ffa726"/>
          <path id="Path_21592" data-name="Path 21592" d="M143.29,317.123v-1.4l2.358,1.354v1.41Z" transform="translate(-124.533 -267.229)" fill="#fff" opacity="0.8"/>
          <path id="Path_21593" data-name="Path 21593" d="M155.887,314.3v1.41l-2.947,1.7V316Z" transform="translate(-131.825 -266.156)" fill="#ffa726"/>
          <path id="Path_21594" data-name="Path 21594" d="M155.887,314.3v1.41l-2.947,1.7V316Z" transform="translate(-131.825 -266.156)" fill="#fff" opacity="0.75"/>
          <path id="Path_21595" data-name="Path 21595" d="M162.348,317.722l-2.947,1.7-2.361-1.351,3.1-1.789Z" transform="translate(-134.923 -267.652)" fill="#ffa726"/>
          <path id="Path_21596" data-name="Path 21596" d="M162.348,317.722l-2.947,1.7-2.361-1.351,3.1-1.789Z" transform="translate(-134.923 -267.652)" fill="#fff" opacity="0.9"/>
          <path id="Path_21597" data-name="Path 21597" d="M157.04,325v-1.4l2.361,1.351v1.412Z" transform="translate(-134.923 -273.183)" fill="#ffa726"/>
          <path id="Path_21598" data-name="Path 21598" d="M157.04,325v-1.4l2.361,1.351v1.412Z" transform="translate(-134.923 -273.183)" fill="#fff" opacity="0.8"/>
          <path id="Path_21599" data-name="Path 21599" d="M169.647,322.18v1.41l-2.947,1.7v-1.412Z" transform="translate(-142.222 -272.11)" fill="#ffa726"/>
          <path id="Path_21600" data-name="Path 21600" d="M169.647,322.18v1.41l-2.947,1.7v-1.412Z" transform="translate(-142.222 -272.11)" fill="#fff" opacity="0.75"/>
          <path id="Path_21601" data-name="Path 21601" d="M181.868,321.279l-2.947,1.7-2.361-1.354,3.1-1.786Z" transform="translate(-149.673 -270.342)" fill="#ffa726"/>
          <path id="Path_21602" data-name="Path 21602" d="M181.868,321.279l-2.947,1.7-2.361-1.354,3.1-1.786Z" transform="translate(-149.673 -270.342)" fill="#fff" opacity="0.9"/>
          <path id="Path_21603" data-name="Path 21603" d="M176.56,330.525V327.15l2.361,1.354v3.384Z" transform="translate(-149.673 -275.866)" fill="#ffa726"/>
          <path id="Path_21604" data-name="Path 21604" d="M176.56,330.525V327.15l2.361,1.354v3.384Z" transform="translate(-149.673 -275.866)" fill="#fff" opacity="0.8"/>
          <path id="Path_21605" data-name="Path 21605" d="M189.167,325.73v3.382l-2.947,1.7v-3.384Z" transform="translate(-156.972 -274.793)" fill="#ffa726"/>
          <path id="Path_21606" data-name="Path 21606" d="M189.167,325.73v3.382l-2.947,1.7v-3.384Z" transform="translate(-156.972 -274.793)" fill="#fff" opacity="0.75"/>
          <path id="Path_21607" data-name="Path 21607" d="M108.994,288.809,105.8,290l-2.361-1.351,3.348-1.283Z" transform="translate(-94.421 -245.806)" fill="#ffa726"/>
          <path id="Path_21608" data-name="Path 21608" d="M108.994,288.809,105.8,290l-2.361-1.351,3.348-1.283Z" transform="translate(-94.421 -245.806)" fill="#fff" opacity="0.9"/>
          <path id="Path_21609" data-name="Path 21609" d="M103.44,294.02v-1.4l2.361,1.351v1.412Z" transform="translate(-94.421 -249.774)" fill="#ffa726"/>
          <path id="Path_21610" data-name="Path 21610" d="M103.44,294.02v-1.4l2.361,1.351v1.412Z" transform="translate(-94.421 -249.774)" fill="#fff" opacity="0.8"/>
          <path id="Path_21611" data-name="Path 21611" d="M116.294,293.26v1.41l-3.194,1.2v-1.412Z" transform="translate(-101.72 -250.257)" fill="#ffa726"/>
          <path id="Path_21612" data-name="Path 21612" d="M116.294,293.26v1.41l-3.194,1.2v-1.412Z" transform="translate(-101.72 -250.257)" fill="#fff" opacity="0.75"/>
          <path id="Path_21613" data-name="Path 21613" d="M129.947,280.809l-3.2,1.2-2.361-1.354,3.348-1.283Z" transform="translate(-110.251 -239.761)" fill="#ffa726"/>
          <path id="Path_21614" data-name="Path 21614" d="M129.947,280.809l-3.2,1.2-2.361-1.354,3.348-1.283Z" transform="translate(-110.251 -239.761)" fill="#fff" opacity="0.9"/>
          <path id="Path_21615" data-name="Path 21615" d="M124.39,286.023v-1.4l2.361,1.354v1.41Z" transform="translate(-110.251 -243.728)" fill="#ffa726"/>
          <path id="Path_21616" data-name="Path 21616" d="M124.39,286.023v-1.4l2.361,1.354v1.41Z" transform="translate(-110.251 -243.728)" fill="#fff" opacity="0.8"/>
          <path id="Path_21617" data-name="Path 21617" d="M137.246,285.26v1.412l-3.2,1.195v-1.41Z" transform="translate(-117.551 -244.212)" fill="#ffa726"/>
          <path id="Path_21618" data-name="Path 21618" d="M137.246,285.26v1.412l-3.2,1.195v-1.41Z" transform="translate(-117.551 -244.212)" fill="#fff" opacity="0.75"/>
          <path id="Path_21619" data-name="Path 21619" d="M226.48,250.243V248.2l5.972.7v2.043Z" transform="translate(-187.394 -216.208)" fill="#ffa726"/>
          <path id="Path_21620" data-name="Path 21620" d="M226.48,250.243V248.2l5.972.7v2.043Z" transform="translate(-187.394 -216.208)" fill="#fff" opacity="0.75"/>
          <path id="Path_21621" data-name="Path 21621" d="M250.92,240.161l1.261-3.531v2.453L250.92,242.2Z" transform="translate(-205.862 -207.465)" fill="#ffa726"/>
          <path id="Path_21622" data-name="Path 21622" d="M250.92,240.161l1.261-3.531v2.453L250.92,242.2Z" transform="translate(-205.862 -207.465)" fill="#fff" opacity="0.65"/>
          <path id="Path_21623" data-name="Path 21623" d="M233.713,234.454l-5.84-.7-1.393,3.531,5.972.7Z" transform="translate(-187.394 -205.289)" fill="#ffa726"/>
          <path id="Path_21624" data-name="Path 21624" d="M233.713,234.454l-5.84-.7-1.393,3.531,5.972.7Z" transform="translate(-187.394 -205.289)" fill="#fff" opacity="0.9"/>
          <path id="Path_21625" data-name="Path 21625" d="M229.62,215.305V205.34l4.677.55v9.965Z" transform="translate(-189.767 -183.821)" fill="#ffa726"/>
          <path id="Path_21626" data-name="Path 21626" d="M229.62,215.305V205.34l4.677.55v9.965Z" transform="translate(-189.767 -183.821)" fill="#fff" opacity="0.75"/>
          <path id="Path_21627" data-name="Path 21627" d="M248.76,198.749l1.021-2.859v10.295l-1.021,2.529Z" transform="translate(-204.23 -176.681)" fill="#ffa726"/>
          <path id="Path_21628" data-name="Path 21628" d="M248.76,198.749l1.021-2.859v10.295l-1.021,2.529Z" transform="translate(-204.23 -176.681)" fill="#fff" opacity="0.65"/>
          <path id="Path_21629" data-name="Path 21629" d="M235.319,194.19l-4.57-.55L229.62,196.5l4.677.55Z" transform="translate(-189.767 -174.98)" fill="#ffa726"/>
          <path id="Path_21630" data-name="Path 21630" d="M235.319,194.19l-4.57-.55L229.62,196.5l4.677.55Z" transform="translate(-189.767 -174.98)" fill="#fff" opacity="0.9"/>
          <path id="Path_21631" data-name="Path 21631" d="M235.59,185.912V180.48l2.551.3v5.432Z" transform="translate(-194.278 -165.036)" fill="#ffa726"/>
          <path id="Path_21632" data-name="Path 21632" d="M235.59,185.912V180.48l2.551.3v5.432Z" transform="translate(-194.278 -165.036)" fill="#fff" opacity="0.75"/>
          <path id="Path_21633" data-name="Path 21633" d="M246.03,176.889l.557-1.559v5.613l-.557,1.378Z" transform="translate(-202.167 -161.145)" fill="#ffa726"/>
          <path id="Path_21634" data-name="Path 21634" d="M246.03,176.889l.557-1.559v5.613l-.557,1.378Z" transform="translate(-202.167 -161.145)" fill="#fff" opacity="0.65"/>
          <path id="Path_21635" data-name="Path 21635" d="M238.7,174.4l-2.495-.3-.613,1.559,2.551.3Z" transform="translate(-194.278 -160.215)" fill="#ffa726"/>
          <path id="Path_21636" data-name="Path 21636" d="M238.7,174.4l-2.495-.3-.613,1.559,2.551.3Z" transform="translate(-194.278 -160.215)" fill="#fff" opacity="0.9"/>
          <path id="Path_21637" data-name="Path 21637" d="M346.28,266.663v-15.7l4.68.55v15.7Z" transform="translate(-277.92 -218.294)" fill="#ffa726"/>
          <path id="Path_21638" data-name="Path 21638" d="M346.28,266.663v-15.7l4.68.55v15.7Z" transform="translate(-277.92 -218.294)" fill="#fff" opacity="0.75"/>
          <path id="Path_21639" data-name="Path 21639" d="M365.43,247.021l.684-2v16.033l-.684,1.671Z" transform="translate(-292.39 -213.805)" fill="#ffa726"/>
          <path id="Path_21640" data-name="Path 21640" d="M365.43,247.021l.684-2v16.033l-.684,1.671Z" transform="translate(-292.39 -213.805)" fill="#fff" opacity="0.65"/>
          <path id="Path_21641" data-name="Path 21641" d="M351.644,243.32l-4.572-.55-.792,2,4.68.55Z" transform="translate(-277.92 -212.105)" fill="#ffa726"/>
          <path id="Path_21642" data-name="Path 21642" d="M351.644,243.32l-4.572-.55-.792,2,4.68.55Z" transform="translate(-277.92 -212.105)" fill="#fff" opacity="0.9"/>
          <path id="Path_21643" data-name="Path 21643" d="M377.26,290.76V276.22l4.078.452v14.542Z" transform="translate(-301.329 -237.381)" fill="#ffa726"/>
          <path id="Path_21644" data-name="Path 21644" d="M377.26,290.76V276.22l4.078.452v14.542Z" transform="translate(-301.329 -237.381)" fill="#fff" opacity="0.75"/>
          <path id="Path_21645" data-name="Path 21645" d="M393.95,270.476l.919-2.456v15.043l-.919,1.955Z" transform="translate(-313.941 -231.185)" fill="#ffa726"/>
          <path id="Path_21646" data-name="Path 21646" d="M393.95,270.476l.919-2.456v15.043l-.919,1.955Z" transform="translate(-313.941 -231.185)" fill="#fff" opacity="0.65"/>
          <path id="Path_21647" data-name="Path 21647" d="M382.257,266.622l-3.917-.452-1.08,2.456,4.078.452Z" transform="translate(-301.329 -229.787)" fill="#ffa726"/>
          <path id="Path_21648" data-name="Path 21648" d="M382.257,266.622l-3.917-.452-1.08,2.456,4.078.452Z" transform="translate(-301.329 -229.787)" fill="#fff" opacity="0.9"/>
          <path id="Path_21649" data-name="Path 21649" d="M395.83,293.412V280.28l2.16.232v13.132Z" transform="translate(-315.361 -240.449)" fill="#ffa726"/>
          <path id="Path_21650" data-name="Path 21650" d="M395.83,293.412V280.28l2.16.232v13.132Z" transform="translate(-315.361 -240.449)" fill="#fff" opacity="0.75"/>
          <path id="Path_21651" data-name="Path 21651" d="M404.67,277.9,405,276.82v13.565l-.335.645Z" transform="translate(-322.041 -237.834)" fill="#ffa726"/>
          <path id="Path_21652" data-name="Path 21652" d="M404.67,277.9,405,276.82v13.565l-.335.645Z" transform="translate(-322.041 -237.834)" fill="#fff" opacity="0.65"/>
          <path id="Path_21653" data-name="Path 21653" d="M398.325,276.11l-2.021-.23-.474,1.075,2.16.232Z" transform="translate(-315.361 -237.124)" fill="#ffa726"/>
          <path id="Path_21654" data-name="Path 21654" d="M398.325,276.11l-2.021-.23-.474,1.075,2.16.232Z" transform="translate(-315.361 -237.124)" fill="#fff" opacity="0.9"/>
          <path id="Path_21655" data-name="Path 21655" d="M66.53,270.17l5.958,3.438v1.869l-5.958-3.438Z" transform="translate(-66.53 -232.809)" fill="#ffa726"/>
          <path id="Path_21656" data-name="Path 21656" d="M66.53,270.17l5.958,3.438v1.869l-5.958-3.438Z" transform="translate(-66.53 -232.809)" opacity="0.35"/>
          <path id="Path_21657" data-name="Path 21657" d="M96.865,272.039V270.17l-5.955,3.438v1.869" transform="translate(-84.952 -232.809)" fill="#ffa726"/>
          <path id="Path_21658" data-name="Path 21658" d="M96.865,270.17l-5.955,3.438v1.869l5.955-3.438Z" transform="translate(-84.952 -232.809)" opacity="0.15"/>
          <path id="Path_21659" data-name="Path 21659" d="M78.443,259.538,72.488,256.1l-5.958,3.438,5.958,3.438Z" transform="translate(-66.53 -222.178)" fill="#ffa726"/>
          <path id="Path_21660" data-name="Path 21660" d="M78.443,259.538,72.488,256.1l-5.958,3.438,5.958,3.438Z" transform="translate(-66.53 -222.178)" opacity="0.5"/>
          <path id="Path_21661" data-name="Path 21661" d="M66.53,267.222l5.958,3.438v-.572L66.53,266.65Z" transform="translate(-66.53 -230.15)" fill="#ffa726"/>
          <path id="Path_21662" data-name="Path 21662" d="M66.53,267.222l5.958,3.438v-.572L66.53,266.65Z" transform="translate(-66.53 -230.15)" opacity="0.35"/>
          <path id="Path_21663" data-name="Path 21663" d="M90.91,270.66l5.955-3.438v-.572l-5.955,3.438Z" transform="translate(-84.952 -230.15)" fill="#ffa726"/>
          <path id="Path_21664" data-name="Path 21664" d="M90.91,270.66l5.955-3.438v-.572l-5.955,3.438Z" transform="translate(-84.952 -230.15)" opacity="0.15"/>
          <path id="Path_21665" data-name="Path 21665" d="M78.443,256.018l-5.955-3.438-5.958,3.438,5.958,3.438Z" transform="translate(-66.53 -219.518)" fill="#ffa726"/>
          <path id="Path_21666" data-name="Path 21666" d="M78.443,256.018l-5.955-3.438-5.958,3.438,5.958,3.438Z" transform="translate(-66.53 -219.518)" opacity="0.5"/>
          <path id="Path_21667" data-name="Path 21667" d="M66.53,263.442l5.958,3.438v-.572L66.53,262.87Z" transform="translate(-66.53 -227.293)" fill="#ffa726"/>
          <path id="Path_21668" data-name="Path 21668" d="M66.53,263.442l5.958,3.438v-.572L66.53,262.87Z" transform="translate(-66.53 -227.293)" opacity="0.35"/>
          <path id="Path_21669" data-name="Path 21669" d="M90.91,266.88l5.955-3.438v-.572l-5.955,3.438Z" transform="translate(-84.952 -227.293)" fill="#ffa726"/>
          <path id="Path_21670" data-name="Path 21670" d="M90.91,266.88l5.955-3.438v-.572l-5.955,3.438Z" transform="translate(-84.952 -227.293)" opacity="0.15"/>
          <path id="Path_21671" data-name="Path 21671" d="M78.443,252.238,72.488,248.8l-5.958,3.438,5.958,3.438Z" transform="translate(-66.53 -216.661)" fill="#ffa726"/>
          <path id="Path_21672" data-name="Path 21672" d="M78.443,252.238,72.488,248.8l-5.958,3.438,5.958,3.438Z" transform="translate(-66.53 -216.661)" opacity="0.5"/>
          <path id="Path_21673" data-name="Path 21673" d="M75.563,220.8V206.364L70.6,203.5v14.434Z" transform="translate(-69.605 -182.431)" fill="#ffa726"/>
          <path id="Path_21674" data-name="Path 21674" d="M90.91,206.364l4.963-2.864v14.434L90.91,220.8Z" transform="translate(-84.952 -182.431)" fill="#ffa726"/>
          <path id="Path_21675" data-name="Path 21675" d="M80.526,194.636l-4.963-2.866L70.6,194.636l4.963,2.864Z" transform="translate(-69.605 -173.567)" fill="#ffa726"/>
          <path id="Path_21676" data-name="Path 21676" d="M80.526,194.636l-4.963-2.866L70.6,194.636l4.963,2.864Z" transform="translate(-69.605 -173.567)" opacity="0.4"/>
          <path id="Path_21677" data-name="Path 21677" d="M75.563,220.8V206.364L70.6,203.5v14.434Z" transform="translate(-69.605 -182.431)" opacity="0.2"/>
          <path id="Path_21678" data-name="Path 21678" d="M78.631,168.025V155.866L74.66,153.52v12.213Z" transform="translate(-72.673 -144.664)" fill="#ffa726"/>
          <path id="Path_21679" data-name="Path 21679" d="M90.91,168.025V155.866l3.968-2.346v12.213Z" transform="translate(-84.952 -144.664)" fill="#ffa726"/>
          <path id="Path_21680" data-name="Path 21680" d="M82.6,146.515l-3.968-2.265-3.971,2.265,3.971,2.346Z" transform="translate(-72.673 -137.66)" fill="#ffa726"/>
          <path id="Path_21681" data-name="Path 21681" d="M82.6,146.515l-3.968-2.265-3.971,2.265,3.971,2.346Z" transform="translate(-72.673 -137.66)" opacity="0.4"/>
          <path id="Path_21682" data-name="Path 21682" d="M78.631,168.025V155.866L74.66,153.52v12.213Z" transform="translate(-72.673 -144.664)" opacity="0.2"/>
          <path id="Path_21683" data-name="Path 21683" d="M90.91,149.742v-1.718l2.48-1.434v1.72Z" transform="translate(-84.952 -139.428)" fill="#ffa726"/>
          <path id="Path_21684" data-name="Path 21684" d="M80.75,148.31v-1.72l2.483,1.434v1.718Z" transform="translate(-77.275 -139.428)" fill="#ffa726"/>
          <path id="Path_21685" data-name="Path 21685" d="M80.75,148.31v-1.72l2.483,1.434v1.718Z" transform="translate(-77.275 -139.428)" opacity="0.2"/>
          <path id="Path_21686" data-name="Path 21686" d="M85.713,142.162l-2.48-1.432-2.483,1.432,2.483,1.434Z" transform="translate(-77.275 -135)" fill="#ffa726"/>
          <path id="Path_21687" data-name="Path 21687" d="M85.713,142.162l-2.48-1.432-2.483,1.432,2.483,1.434Z" transform="translate(-77.275 -135)" opacity="0.4"/>
          <path id="Path_21688" data-name="Path 21688" d="M90.91,125.3V117.28l1.488,7.162Z" transform="translate(-84.952 -117.28)" fill="#ffa726"/>
          <path id="Path_21689" data-name="Path 21689" d="M90.91,125.3V117.28l1.488,7.162Z" transform="translate(-84.952 -117.28)" opacity="0.1"/>
          <path id="Path_21690" data-name="Path 21690" d="M84.74,124.442l1.508-7.162V125.3Z" transform="translate(-80.29 -117.28)" fill="#ffa726"/>
          <path id="Path_21691" data-name="Path 21691" d="M84.74,124.442l1.508-7.162V125.3Z" transform="translate(-80.29 -117.28)" opacity="0.25"/>
        </g>
        <path id="Path_21692" data-name="Path 21692" d="M171.813,283.173a.164.164,0,0,1-.056-.012,22.423,22.423,0,0,0-8.372-1.9c-5.053-.232-7.463.733-7.487.733a.125.125,0,0,1-.161-.161l7.431-18.366-17.374-2.026a.125.125,0,0,1-.1-.171l2.754-6.813-35.154-4.174a.12.12,0,0,1-.108-.137.125.125,0,0,1,.137-.11l35.318,4.2a.117.117,0,0,1,.09.171l-2.756,6.815,17.374,2.026a.127.127,0,0,1,.093.059.13.13,0,0,1,0,.112l-7.39,18.256a21.433,21.433,0,0,1,7.331-.662,22.679,22.679,0,0,1,8.474,1.923.122.122,0,0,1,.054.166A.124.124,0,0,1,171.813,283.173Z" transform="translate(-92.613 -217.596)" fill="#455a64"/>
      </g>
    </g>
    <g id="freepik--Locators--inject-2" transform="translate(28.987 28.149)">
      <g id="freepik--Pin--inject-2" transform="translate(0 0)">
        <path id="Path_21693" data-name="Path 21693" d="M67.65,38.941v-.733a9.146,9.146,0,0,1,.464-2.764h0a10.3,10.3,0,0,1,4.186-5.62,3.209,3.209,0,0,1,3.057-.354l-1.61-.926a2.383,2.383,0,0,0-1.339-.393,1.757,1.757,0,0,0-.225.012,1.819,1.819,0,0,0-.244.027,1.968,1.968,0,0,0-.244.044,2.428,2.428,0,0,0-.244.066,4.113,4.113,0,0,0-.506.186c-.086.037-.171.081-.259.122s-.176.093-.261.142a10.614,10.614,0,0,0-4.633,8.406v.733c0,3.16,4.249,6.6,4.249,6.6l1.711.977a.732.732,0,0,1-.086-.066C70.406,44.2,67.65,41.372,67.65,38.941ZM72.723,32.3a1.925,1.925,0,0,1,.029.244c0,.029,0,.056,0,.086a1.4,1.4,0,0,1,0,.144A5.132,5.132,0,0,1,70.428,36.8l-.139.076c-.046.024-.093.044-.137.064l-.134.056H70c.2,1.134,1.144,1.53,2.287.875a5.129,5.129,0,0,0,2.321-4.027C74.621,32.526,73.8,31.9,72.723,32.3Z" transform="translate(-65.79 -28.149)" fill="#ffa726"/>
        <path id="Path_21694" data-name="Path 21694" d="M67.65,38.941v-.733a9.146,9.146,0,0,1,.464-2.764h0a10.3,10.3,0,0,1,4.186-5.62,3.209,3.209,0,0,1,3.057-.354l-1.61-.926a2.383,2.383,0,0,0-1.339-.393,1.757,1.757,0,0,0-.225.012,1.819,1.819,0,0,0-.244.027,1.968,1.968,0,0,0-.244.044,2.428,2.428,0,0,0-.244.066,4.113,4.113,0,0,0-.506.186c-.086.037-.171.081-.259.122s-.176.093-.261.142a10.614,10.614,0,0,0-4.633,8.406v.733c0,3.16,4.249,6.6,4.249,6.6l1.711.977a.732.732,0,0,1-.086-.066C70.406,44.2,67.65,41.372,67.65,38.941Z" transform="translate(-65.79 -28.149)" opacity="0.3"/>
        <path id="Path_21695" data-name="Path 21695" d="M85.75,44.759a1.927,1.927,0,0,1,.029.244v.086a1.4,1.4,0,0,1,0,.144,5.132,5.132,0,0,1-2.324,4.025l-.139.076c-.046.024-.093.044-.137.064l-.134.056H83.03c.2,1.134,1.144,1.53,2.287.875A5.129,5.129,0,0,0,87.639,46.3C87.648,44.989,86.83,44.366,85.75,44.759Z" transform="translate(-78.817 -40.612)" opacity="0.5"/>
        <path id="Path_21696" data-name="Path 21696" d="M82.726,36.152c0-3.16-2.08-4.521-4.643-3.037a10.63,10.63,0,0,0-4.643,8.4v.733c0,2.444,2.756,5.256,4.025,6.427a.626.626,0,0,0,.977-.186c1.095-2.241,4.284-8.993,4.284-11.61Zm-4.643,5.012c-1.283.733-2.324.142-2.324-1.342a5.1,5.1,0,0,1,2.319-4.012c1.283-.733,2.324-.142,2.324,1.342a5.112,5.112,0,0,1-2.324,4.012Z" transform="translate(-71.571 -31.447)" fill="#ffa726"/>
        <path id="Path_21697" data-name="Path 21697" d="M82.726,36.152c0-3.16-2.08-4.521-4.643-3.037a10.63,10.63,0,0,0-4.643,8.4v.733c0,2.444,2.756,5.256,4.025,6.427a.626.626,0,0,0,.977-.186c1.095-2.241,4.284-8.993,4.284-11.61Zm-4.643,5.012c-1.283.733-2.324.142-2.324-1.342a5.1,5.1,0,0,1,2.319-4.012c1.283-.733,2.324-.142,2.324,1.342a5.112,5.112,0,0,1-2.324,4.012Z" transform="translate(-71.571 -31.447)" fill="#ffa726"/>
      </g>
      <g id="freepik--pin--inject-2-2" data-name="freepik--pin--inject-2" transform="translate(41.202 27.115)">
        <path id="Path_21698" data-name="Path 21698" d="M235.021,142.663v-.244a3,3,0,0,1,.154-.909h0a3.394,3.394,0,0,1,1.376-1.85,1.051,1.051,0,0,1,1-.117l-.53-.305a.78.78,0,0,0-.437-.127h-.161a.47.47,0,0,0-.081.015l-.078.02a1.154,1.154,0,0,0-.166.064l-.086.039-.088.046a3.475,3.475,0,0,0-1.527,2.761v.244c0,1.039,1.4,2.167,1.4,2.167l.564.32-.027-.022C235.927,144.388,235.021,143.462,235.021,142.663Zm1.669-2.185q0,.04,0,.081v.027a.326.326,0,0,1,0,.049,1.689,1.689,0,0,1-.765,1.322l-.044.024-.046.022-.044.017h0c.064.371.374.5.75.286a1.691,1.691,0,0,0,.762-1.322C237.313,140.549,237.044,140.349,236.69,140.478Z" transform="translate(-234.4 -139.11)" fill="#ffa726"/>
        <path id="Path_21699" data-name="Path 21699" d="M235.021,142.663v-.244a3,3,0,0,1,.154-.909h0a3.394,3.394,0,0,1,1.376-1.85,1.051,1.051,0,0,1,1-.117l-.53-.305a.78.78,0,0,0-.437-.127h-.161a.47.47,0,0,0-.081.015l-.078.02a1.154,1.154,0,0,0-.166.064l-.086.039-.088.046a3.475,3.475,0,0,0-1.527,2.761v.244c0,1.039,1.4,2.167,1.4,2.167l.564.32-.027-.022C235.927,144.388,235.021,143.462,235.021,142.663Z" transform="translate(-234.4 -139.11)" fill="#fff" opacity="0.6"/>
        <path id="Path_21700" data-name="Path 21700" d="M240.959,144.59q0,.04,0,.081v.076a1.686,1.686,0,0,1-.762,1.322l-.046.024-.044.022-.046.017h0c.066.371.376.5.75.286a1.686,1.686,0,0,0,.762-1.322C241.582,144.661,241.316,144.46,240.959,144.59Z" transform="translate(-238.677 -143.221)" fill="#fff" opacity="0.6"/>
        <path id="Path_21701" data-name="Path 21701" d="M240.042,141.762c0-1.039-.684-1.486-1.527-1A3.483,3.483,0,0,0,237,143.526v.244c0,.8.9,1.725,1.322,2.111a.205.205,0,0,0,.325-.061,14.535,14.535,0,0,0,1.408-3.814Zm-1.527,1.647c-.423.244-.765.046-.765-.44a1.689,1.689,0,0,1,.765-1.32c.42-.244.762-.046.762.442A1.689,1.689,0,0,1,238.515,143.409Z" transform="translate(-236.365 -140.21)" fill="#ffa726"/>
        <path id="Path_21702" data-name="Path 21702" d="M240.042,141.762c0-1.039-.684-1.486-1.527-1A3.483,3.483,0,0,0,237,143.526v.244c0,.8.9,1.725,1.322,2.111a.205.205,0,0,0,.325-.061,14.535,14.535,0,0,0,1.408-3.814Zm-1.527,1.647c-.423.244-.765.046-.765-.44a1.689,1.689,0,0,1,.765-1.32c.42-.244.762-.046.762.442A1.689,1.689,0,0,1,238.515,143.409Z" transform="translate(-236.365 -140.21)" fill="#ffa726"/>
        <g id="Group_10425" data-name="Group 10425" transform="translate(0.635 0.356)" opacity="0.8">
          <path id="Path_21703" data-name="Path 21703" d="M240.042,141.762c0-1.039-.684-1.486-1.527-1A3.483,3.483,0,0,0,237,143.526v.244c0,.8.9,1.725,1.322,2.111a.205.205,0,0,0,.325-.061,14.535,14.535,0,0,0,1.408-3.814Zm-1.527,1.647c-.423.244-.765.046-.765-.44a1.689,1.689,0,0,1,.765-1.32c.42-.244.762-.046.762.442A1.689,1.689,0,0,1,238.515,143.409Z" transform="translate(-237 -140.566)" fill="#fff"/>
        </g>
      </g>
      <g id="freepik--pin--inject-2-3" data-name="freepik--pin--inject-2" transform="translate(69.673 43.088)">
        <path id="Path_21704" data-name="Path 21704" d="M351.521,208.028v-.244a3,3,0,0,1,.154-.909h0a3.394,3.394,0,0,1,1.376-1.85,1.051,1.051,0,0,1,1-.117l-.53-.3a.787.787,0,0,0-.44-.127h-.151l-.078.015-.081.02a1.431,1.431,0,0,0-.166.064l-.083.039-.088.046a3.494,3.494,0,0,0-1.527,2.761v.244c0,1.039,1.4,2.167,1.4,2.167l.564.32-.027-.022C352.427,209.738,351.521,208.815,351.521,208.028Zm1.669-2.185q0,.04,0,.081v.027a.319.319,0,0,1,0,.049,1.689,1.689,0,0,1-.765,1.322l-.044.024-.046.022-.044.017h0c.066.371.376.489.753.286a1.691,1.691,0,0,0,.762-1.322c.007-.442-.261-.648-.616-.52Z" transform="translate(-350.91 -204.48)" fill="#ffa726"/>
        <path id="Path_21705" data-name="Path 21705" d="M351.521,208.028v-.244a3,3,0,0,1,.154-.909h0a3.394,3.394,0,0,1,1.376-1.85,1.051,1.051,0,0,1,1-.117l-.53-.3a.787.787,0,0,0-.44-.127h-.151l-.078.015-.081.02a1.431,1.431,0,0,0-.166.064l-.083.039-.088.046a3.494,3.494,0,0,0-1.527,2.761v.244c0,1.039,1.4,2.167,1.4,2.167l.564.32-.027-.022C352.427,209.738,351.521,208.815,351.521,208.028Z" transform="translate(-350.91 -204.48)" fill="#fff" opacity="0.6"/>
        <path id="Path_21706" data-name="Path 21706" d="M357.429,209.885q0,.04,0,.081v.076a1.686,1.686,0,0,1-.762,1.322l-.046.024-.044.022-.046.017h0c.066.371.376.489.75.286a1.686,1.686,0,0,0,.762-1.322C358.052,209.963,357.784,209.758,357.429,209.885Z" transform="translate(-355.157 -208.536)" fill="#fff" opacity="0.6"/>
        <path id="Path_21707" data-name="Path 21707" d="M356.467,207.062c0-1.039-.684-1.486-1.527-1a3.5,3.5,0,0,0-1.53,2.764v.244c0,.8.907,1.725,1.324,2.111a.205.205,0,0,0,.325-.061,14.535,14.535,0,0,0,1.408-3.814Zm-1.527,1.647c-.423.244-.765.046-.765-.44a1.689,1.689,0,0,1,.765-1.324c.42-.244.762-.046.762.442A1.688,1.688,0,0,1,354.94,208.709Z" transform="translate(-352.799 -205.527)" fill="#ffa726"/>
        <path id="Path_21708" data-name="Path 21708" d="M356.467,207.062c0-1.039-.684-1.486-1.527-1a3.5,3.5,0,0,0-1.53,2.764v.244c0,.8.907,1.725,1.324,2.111a.205.205,0,0,0,.325-.061,14.535,14.535,0,0,0,1.408-3.814Zm-1.527,1.647c-.423.244-.765.046-.765-.44a1.689,1.689,0,0,1,.765-1.324c.42-.244.762-.046.762.442A1.688,1.688,0,0,1,354.94,208.709Z" transform="translate(-352.799 -205.527)" fill="#ffa726"/>
        <g id="Group_10426" data-name="Group 10426" transform="translate(0.611 0.339)" opacity="0.8">
          <path id="Path_21709" data-name="Path 21709" d="M356.467,207.062c0-1.039-.684-1.486-1.527-1a3.5,3.5,0,0,0-1.53,2.764v.244c0,.8.907,1.725,1.324,2.111a.205.205,0,0,0,.325-.061,14.535,14.535,0,0,0,1.408-3.814Zm-1.527,1.647c-.423.244-.765.046-.765-.44a1.689,1.689,0,0,1,.765-1.324c.42-.244.762-.046.762.442A1.688,1.688,0,0,1,354.94,208.709Z" transform="translate(-353.41 -205.866)" fill="#fff"/>
        </g>
      </g>
    </g>
    <g id="freepik--Arrow--inject-2" transform="translate(111.953 122.734)">
      <g id="freepik--arrow--inject-2-2" data-name="freepik--arrow--inject-2">
        <path id="Path_21710" data-name="Path 21710" d="M421.373,421.406h0v-2.143L405.36,415.58v2.141h0a.306.306,0,0,0,.073.176l6.234,8.743c.154.215.32.178.369-.081l.789-4.1a.648.648,0,0,1,.567-.489l7.776-.489C421.3,421.452,421.371,421.432,421.373,421.406Z" transform="translate(-405.349 -415.491)" fill="#ffa726"/>
        <path id="Path_21711" data-name="Path 21711" d="M421.373,421.406h0v-2.143L405.36,415.58v2.141h0a.306.306,0,0,0,.073.176l6.234,8.743c.154.215.32.178.369-.081l.789-4.1a.648.648,0,0,1,.567-.489l7.776-.489C421.3,421.452,421.371,421.432,421.373,421.406Z" transform="translate(-405.349 -415.491)" opacity="0.3"/>
        <path id="Path_21712" data-name="Path 21712" d="M431.74,437.9c.105.049.2-.02.232-.2l.789-4.1a.621.621,0,0,1,.13-.264V430.32l-1.151,1.686Z" transform="translate(-425.282 -426.629)" opacity="0.2"/>
        <path id="Path_21713" data-name="Path 21713" d="M412,424.141l.789-4.091a.648.648,0,0,1,.567-.489l7.778-.489c.261-.017.266-.081,0-.142l-15.561-3.7c-.257-.061-.34.064-.186.279l6.234,8.743C411.788,424.449,411.954,424.4,412,424.141Z" transform="translate(-405.314 -415.216)" fill="#ffa726"/>
      </g>
    </g>
  </g>
</svg>