<svg id="vuesax_twotone_truck-fast" data-name="vuesax/twotone/truck-fast" xmlns="http://www.w3.org/2000/svg" width="64" height="64" viewBox="0 0 64 64">
  <g id="truck-fast" transform="translate(0 0)">
    <path id="Vector" d="M27.957,33.467H25.29a1.483,1.483,0,0,1,0-2.967h2.667a3.854,3.854,0,0,0,3.85-3.85V1.467H9.29A9.178,9.178,0,0,0,1.279,6.172a1.483,1.483,0,0,1-2.018.574,1.483,1.483,0,0,1-.574-2.018A12.147,12.147,0,0,1,9.29-1.5h24A1.483,1.483,0,0,1,34.773-.017V26.65A6.824,6.824,0,0,1,27.957,33.467Z" transform="translate(6.71 5.35)" fill="#ffa726"/>
    <path id="Vector-2" data-name="Vector" d="M45.317,41.467H42.65a1.483,1.483,0,0,1-1.483-1.483,3.85,3.85,0,0,0-7.7,0,1.483,1.483,0,0,1-1.483,1.483H21.317a1.483,1.483,0,0,1-1.483-1.483,3.85,3.85,0,0,0-7.7,0,1.483,1.483,0,0,1-1.483,1.483H7.983A9.473,9.473,0,0,1-1.5,31.983,1.483,1.483,0,0,1-.017,30.5a1.483,1.483,0,0,1,1.483,1.483A6.524,6.524,0,0,0,7.983,38.5H9.329a6.818,6.818,0,0,1,13.308,0h8.025a6.818,6.818,0,0,1,13.308,0h1.346a6.524,6.524,0,0,0,6.517-6.517V25.467H45.317a4.155,4.155,0,0,1-4.15-4.15v-8a4.155,4.155,0,0,1,4.15-4.15H46.2L42.911,3.417a3.905,3.905,0,0,0-3.355-1.951H36.133V18.65a6.824,6.824,0,0,1-6.817,6.817H26.65a1.483,1.483,0,0,1,0-2.967h2.667a3.854,3.854,0,0,0,3.85-3.85V-.017A1.483,1.483,0,0,1,34.65-1.5h4.907A6.881,6.881,0,0,1,45.48,1.932l0,.008,4.56,7.973a1.483,1.483,0,0,1-1.288,2.22h-3.44a1.185,1.185,0,0,0-1.183,1.183v8A1.185,1.185,0,0,0,45.317,22.5h8A1.483,1.483,0,0,1,54.8,23.983v8a9.473,9.473,0,0,1-9.483,9.483Z" transform="translate(5.35 13.35)" fill="#377dff"/>
    <path id="Vector-3" data-name="Vector" d="M5.317-1.5A6.817,6.817,0,1,1-1.5,5.317,6.824,6.824,0,0,1,5.317-1.5Zm0,10.667a3.85,3.85,0,1,0-3.85-3.85A3.854,3.854,0,0,0,5.317,9.167Z" transform="translate(16.017 48.017)" fill="#377dff"/>
    <path id="Vector-4" data-name="Vector" d="M5.317-1.5A6.817,6.817,0,1,1-1.5,5.317,6.824,6.824,0,0,1,5.317-1.5Zm0,10.667a3.85,3.85,0,1,0-3.85-3.85A3.854,3.854,0,0,0,5.317,9.167Z" transform="translate(37.35 48.017)" fill="#377dff"/>
    <path id="Vector-5" data-name="Vector" d="M10.65,14.8h-8A4.155,4.155,0,0,1-1.5,10.65v-8A4.155,4.155,0,0,1,2.65-1.5H6.09a1.483,1.483,0,0,1,1.289.749l4.56,8a1.483,1.483,0,0,1,.195.735v5.333A1.483,1.483,0,0,1,10.65,14.8Zm-8-13.333A1.185,1.185,0,0,0,1.467,2.65v8A1.185,1.185,0,0,0,2.65,11.833H9.167V8.376L5.228,1.467Z" transform="translate(48.017 24.017)" fill="#377dff"/>
    <path id="Vector-6" data-name="Vector" d="M15.983,1.467h-16A1.483,1.483,0,0,1-1.5-.017,1.483,1.483,0,0,1-.017-1.5h16A1.483,1.483,0,0,1,17.467-.017,1.483,1.483,0,0,1,15.983,1.467Z" transform="translate(5.35 21.35)" fill="#ffa726"/>
    <path id="Vector-7" data-name="Vector" d="M10.65,1.467H-.017A1.483,1.483,0,0,1-1.5-.017,1.483,1.483,0,0,1-.017-1.5H10.65A1.483,1.483,0,0,1,12.133-.017,1.483,1.483,0,0,1,10.65,1.467Z" transform="translate(5.35 29.35)" fill="#ffa726"/>
    <path id="Vector-8" data-name="Vector" d="M5.317,1.467H-.017A1.483,1.483,0,0,1-1.5-.017,1.483,1.483,0,0,1-.017-1.5H5.317A1.483,1.483,0,0,1,6.8-.017,1.483,1.483,0,0,1,5.317,1.467Z" transform="translate(5.35 37.35)" fill="#ffa726"/>
    <path id="Vector-9" data-name="Vector" d="M0,0H64V64H0Z" fill="none" opacity="0"/>
  </g>
</svg>