<svg xmlns="http://www.w3.org/2000/svg" width="72" height="72" viewBox="0 0 72 72">
  <g id="Group_9731" data-name="Group 9731" transform="translate(0.271 0.051)">
    <rect id="Rectangle_1537" data-name="Rectangle 1537" width="72" height="72" rx="20" transform="translate(-0.271 -0.051)" fill="none"/>
    <g id="_004-iphone-3" data-name="004-iphone-3" transform="translate(-28.899 17.34)">
      <path id="Path_20364" data-name="Path 20364" d="M52.867,0A3.551,3.551,0,0,0,49.32,3.547V34.374a3.551,3.551,0,0,0,3.547,3.547H63.072V0Z" fill="#efefef"/>
      <path id="Path_20365" data-name="Path 20365" d="M51.433,34.374V3.547A3.551,3.551,0,0,1,54.98,0H52.867A3.551,3.551,0,0,0,49.32,3.547V34.374a3.551,3.551,0,0,0,3.547,3.547H54.98A3.551,3.551,0,0,1,51.433,34.374Z" fill="#ddd"/>
      <path id="Path_20366" data-name="Path 20366" d="M79.642,26.716h0a1.8,1.8,0,0,0-1.793,1.793v4.2A1.8,1.8,0,0,0,79.642,34.5h0a1.8,1.8,0,0,0,1.793-1.793v-4.2A1.8,1.8,0,0,0,79.642,26.716Z" transform="translate(-26.416 -24.737)" fill="#535454"/>
      <path id="Path_20367" data-name="Path 20367" d="M79.642,32.694V28.5a1.8,1.8,0,0,1,.9-1.551,1.8,1.8,0,0,0-2.69,1.551v4.2a1.794,1.794,0,0,0,2.69,1.551A1.8,1.8,0,0,1,79.642,32.694Z" transform="translate(-26.416 -24.725)" fill="#444443"/>
      <path id="Path_20368" data-name="Path 20368" d="M203.969,0H190.653a3.551,3.551,0,0,0-3.547,3.547V34.374a3.551,3.551,0,0,0,3.547,3.547h13.316a3.551,3.551,0,0,0,3.547-3.547V3.547A3.551,3.551,0,0,0,203.969,0Z" transform="translate(-127.581 0)" fill="#535454"/>
      <path id="Path_20369" data-name="Path 20369" d="M189.071,34.374V3.547A3.551,3.551,0,0,1,192.618,0h-1.965a3.551,3.551,0,0,0-3.547,3.547V34.374a3.551,3.551,0,0,0,3.547,3.547h1.965A3.551,3.551,0,0,1,189.071,34.374Z" transform="translate(-127.581 0)" fill="#444443"/>
      <path id="Path_20370" data-name="Path 20370" d="M230.12,58.942a1.582,1.582,0,0,1-1.582,1.582H215.222a1.582,1.582,0,0,1-1.582-1.582V28.115a1.582,1.582,0,0,1,1.582-1.582h1.66a.592.592,0,0,1,.592.592V27.5a.918.918,0,0,0,.916.916h6.982a.918.918,0,0,0,.916-.916v-.543a.424.424,0,0,1,.424-.424h1.827a1.582,1.582,0,0,1,1.582,1.582Z" transform="translate(-152.15 -24.568)" fill="#377dff"/>
      <path id="Path_20371" data-name="Path 20371" d="M215.527,58.936V28.11a1.581,1.581,0,0,1,1.441-1.575c-.092-.014.006,0-1.747-.007a1.582,1.582,0,0,0-1.582,1.582V58.937a1.582,1.582,0,0,0,1.582,1.582h1.887A1.582,1.582,0,0,1,215.527,58.936Z" transform="translate(-152.15 -24.563)" fill="#5d96ff"/>
      <g id="Group_9739" data-name="Group 9739" transform="translate(52.654 1.392)">
        <path id="Path_20372" data-name="Path 20372" d="M311.48,19.952h-2.988a.572.572,0,1,1,0-1.145h2.988a.572.572,0,1,1,0,1.145Z" transform="translate(-292.101 -18.806)" fill="#666"/>
        <path id="Path_20373" data-name="Path 20373" d="M283.885,19.848a.572.572,0,1,1,.429.085A.921.921,0,0,1,283.885,19.848Z" transform="translate(-269.611 -18.8)" fill="#666"/>
        <path id="Path_20374" data-name="Path 20374" d="M94.587,45.3a.573.573,0,1,1,.43.085A.73.73,0,0,1,94.587,45.3Z" transform="translate(-94.332 -42.37)" fill="#666"/>
      </g>
      <path id="Path_20375" data-name="Path 20375" d="M94.587,72.59a.572.572,0,1,1,.723-.072A.642.642,0,0,1,94.587,72.59Z" transform="translate(-41.679 -66.244)" fill="#f9d698"/>
      <path id="Path_20376" data-name="Path 20376" d="M94.591,99.863a.572.572,0,1,1,.723-.071A.59.59,0,0,1,94.591,99.863Z" transform="translate(-41.683 -91.496)" fill="#666"/>
      <path id="Path_20377" data-name="Path 20377" d="M241.022,88.636H239.49a.256.256,0,0,1-.255-.255V86.849a.256.256,0,0,1,.255-.255h1.531a.256.256,0,0,1,.255.255v1.531A.256.256,0,0,1,241.022,88.636Z" transform="translate(-175.849 -80.18)" fill="#fff" opacity="0.5"/>
      <path id="Path_20378" data-name="Path 20378" d="M289.7,88.636h-1.531a.256.256,0,0,1-.255-.255V86.849a.256.256,0,0,1,.255-.255H289.7a.256.256,0,0,1,.255.255v1.531A.256.256,0,0,1,289.7,88.636Z" transform="translate(-220.921 -80.18)" fill="#fff" opacity="0.2"/>
      <path id="Path_20379" data-name="Path 20379" d="M338.375,88.636h-1.531a.256.256,0,0,1-.255-.255V86.849a.256.256,0,0,1,.255-.255h1.531a.256.256,0,0,1,.255.255v1.531A.256.256,0,0,1,338.375,88.636Z" transform="translate(-265.992 -80.18)" fill="#fff" opacity="0.6"/>
      <path id="Path_20380" data-name="Path 20380" d="M387.051,88.636h-1.531a.256.256,0,0,1-.255-.255V86.849a.256.256,0,0,1,.255-.255h1.531a.256.256,0,0,1,.255.255v1.531A.256.256,0,0,1,387.051,88.636Z" transform="translate(-311.063 -80.18)" fill="#fff" opacity="0.1"/>
      <path id="Path_20381" data-name="Path 20381" d="M241.022,137.793H239.49a.256.256,0,0,1-.255-.255v-1.531a.256.256,0,0,1,.255-.255h1.531a.256.256,0,0,1,.255.255v1.531A.256.256,0,0,1,241.022,137.793Z" transform="translate(-175.849 -125.697)" fill="#fff" opacity="0.4"/>
      <path id="Path_20382" data-name="Path 20382" d="M289.7,137.793h-1.531a.256.256,0,0,1-.255-.255v-1.531a.256.256,0,0,1,.255-.255H289.7a.256.256,0,0,1,.255.255v1.531A.256.256,0,0,1,289.7,137.793Z" transform="translate(-220.921 -125.697)" fill="#fff" opacity="0.7"/>
      <path id="Path_20383" data-name="Path 20383" d="M338.375,137.793h-1.531a.256.256,0,0,1-.255-.255v-1.531a.256.256,0,0,1,.255-.255h1.531a.256.256,0,0,1,.255.255v1.531A.256.256,0,0,1,338.375,137.793Z" transform="translate(-265.992 -125.697)" fill="#fff" opacity="0.2"/>
      <path id="Path_20384" data-name="Path 20384" d="M387.051,137.793h-1.531a.256.256,0,0,1-.255-.255v-1.531a.256.256,0,0,1,.255-.255h1.531a.256.256,0,0,1,.255.255v1.531A.256.256,0,0,1,387.051,137.793Z" transform="translate(-311.063 -125.697)" fill="#fff" opacity="0.8"/>
      <path id="Path_20385" data-name="Path 20385" d="M241.022,187.588H239.49a.256.256,0,0,1-.255-.255V185.8a.256.256,0,0,1,.255-.255h1.531a.256.256,0,0,1,.255.255v1.531A.256.256,0,0,1,241.022,187.588Z" transform="translate(-175.849 -171.804)" fill="#fff" opacity="0.1"/>
      <path id="Path_20386" data-name="Path 20386" d="M289.7,187.588h-1.531a.256.256,0,0,1-.255-.255V185.8a.256.256,0,0,1,.255-.255H289.7a.256.256,0,0,1,.255.255v1.531A.256.256,0,0,1,289.7,187.588Z" transform="translate(-220.921 -171.804)" fill="#fff" opacity="0.6"/>
      <path id="Path_20387" data-name="Path 20387" d="M338.375,187.588h-1.531a.256.256,0,0,1-.255-.255V185.8a.256.256,0,0,1,.255-.255h1.531a.256.256,0,0,1,.255.255v1.531A.256.256,0,0,1,338.375,187.588Z" transform="translate(-265.992 -171.804)" fill="#fff"/>
      <path id="Path_20388" data-name="Path 20388" d="M387.051,187.588h-1.531a.256.256,0,0,1-.255-.255V185.8a.256.256,0,0,1,.255-.255h1.531a.256.256,0,0,1,.255.255v1.531A.256.256,0,0,1,387.051,187.588Z" transform="translate(-311.063 -171.804)" fill="#fff" opacity="0.2"/>
      <g id="Group_9740" data-name="Group 9740" transform="translate(63.386 17.383)" opacity="0.25">
        <path id="Path_20389" data-name="Path 20389" d="M241.022,236.744H239.49a.256.256,0,0,1-.255-.255v-1.531a.256.256,0,0,1,.255-.255h1.531a.256.256,0,0,1,.255.255v1.531A.256.256,0,0,1,241.022,236.744Z" transform="translate(-239.235 -234.702)" fill="#fff"/>
        <path id="Path_20390" data-name="Path 20390" d="M289.7,236.744h-1.531a.256.256,0,0,1-.255-.255v-1.531a.256.256,0,0,1,.255-.255H289.7a.256.256,0,0,1,.255.255v1.531A.256.256,0,0,1,289.7,236.744Z" transform="translate(-284.307 -234.702)" fill="#fff"/>
      </g>
      <path id="Path_20391" data-name="Path 20391" d="M338.375,236.744h-1.531a.256.256,0,0,1-.255-.255v-1.531a.256.256,0,0,1,.255-.255h1.531a.256.256,0,0,1,.255.255v1.531A.256.256,0,0,1,338.375,236.744Z" transform="translate(-265.992 -217.319)" fill="#fff" opacity="0.5"/>
      <path id="Path_20392" data-name="Path 20392" d="M241.022,285.9H239.49a.256.256,0,0,1-.255-.255v-1.531a.256.256,0,0,1,.255-.255h1.531a.256.256,0,0,1,.255.255v1.531A.256.256,0,0,1,241.022,285.9Z" transform="translate(-175.849 -262.834)" fill="#fff" opacity="0.7"/>
      <path id="Path_20393" data-name="Path 20393" d="M289.7,285.9h-1.531a.256.256,0,0,1-.255-.255v-1.531a.256.256,0,0,1,.255-.255H289.7a.256.256,0,0,1,.255.255v1.531A.256.256,0,0,1,289.7,285.9Z" transform="translate(-220.921 -262.834)" fill="#fff" opacity="0.2"/>
      <path id="Path_20394" data-name="Path 20394" d="M338.375,285.9h-1.531a.256.256,0,0,1-.255-.255v-1.531a.256.256,0,0,1,.255-.255h1.531a.256.256,0,0,1,.255.255v1.531A.256.256,0,0,1,338.375,285.9Z" transform="translate(-265.992 -262.834)" fill="#fff" opacity="0.6"/>
      <path id="Path_20395" data-name="Path 20395" d="M387.051,236.744h-1.531a.256.256,0,0,1-.255-.255v-1.531a.256.256,0,0,1,.255-.255h1.531a.256.256,0,0,1,.255.255v1.531A.256.256,0,0,1,387.051,236.744Z" transform="translate(-311.063 -217.319)" fill="#fff" opacity="0.1"/>
      <path id="Path_20396" data-name="Path 20396" d="M241.023,437.569h-1.531a.256.256,0,0,1-.255-.255v-1.531a.256.256,0,0,1,.255-.255h1.531a.256.256,0,0,1,.255.255v1.531A.256.256,0,0,1,241.023,437.569Z" transform="translate(-175.85 -403.27)" fill="#fff" opacity="0.1"/>
      <path id="Path_20397" data-name="Path 20397" d="M289.7,437.569h-1.531a.256.256,0,0,1-.255-.255v-1.531a.256.256,0,0,1,.255-.255H289.7a.256.256,0,0,1,.255.255v1.531A.256.256,0,0,1,289.7,437.569Z" transform="translate(-220.921 -403.27)" fill="#fff" opacity="0.7"/>
      <path id="Path_20398" data-name="Path 20398" d="M338.375,437.569h-1.531a.256.256,0,0,1-.255-.255v-1.531a.256.256,0,0,1,.255-.255h1.531a.256.256,0,0,1,.255.255v1.531A.256.256,0,0,1,338.375,437.569Z" transform="translate(-265.992 -403.27)" fill="#fff" opacity="0.2"/>
      <path id="Path_20399" data-name="Path 20399" d="M387.051,437.569h-1.531a.256.256,0,0,1-.255-.255v-1.531a.256.256,0,0,1,.255-.255h1.531a.256.256,0,0,1,.255.255v1.531A.256.256,0,0,1,387.051,437.569Z" transform="translate(-311.063 -403.27)" fill="#fff" opacity="0.3"/>
    </g>
  </g>
</svg>