<svg id="vuesax_twotone_headphone" data-name="vuesax/twotone/headphone" xmlns="http://www.w3.org/2000/svg" width="64" height="64" viewBox="0 0 64 64">
  <g id="headphone" transform="translate(0 0)">
    <path id="Vector" d="M0,0H64V64H0Z" fill="none" opacity="0"/>
    <g id="Vector-2" data-name="Vector" transform="translate(3.845 3.974)">
      <g id="Group_14204" data-name="Group 14204" transform="translate(0 0)">
        <g id="Vector-3" data-name="Vector">
          <path id="Path_42473" data-name="Path 42473" d="M1.472,29.355l-2.967,0V27.115A28.245,28.245,0,0,1,.535,15.97,27.872,27.872,0,0,1,15.45.741,28.284,28.284,0,0,1,54.81,26.766v2.589H51.839V26.81A25.478,25.478,0,0,0,26.522,1.467h-.11A25.068,25.068,0,0,0,1.463,26.416q0,.329.009.659Z" transform="translate(1.502 1.518)" fill="#ffa726"/>
        </g>
        <g id="Vector1" transform="translate(0.007 30.87)">
          <path id="Path_42474" data-name="Path 42474" d="M9.509,54.878a10.914,10.914,0,0,1-7.76-3.256A11.128,11.128,0,0,1-.619,48.129,10.747,10.747,0,0,1-1.5,43.876V29.7h56.3l0,13.882a11,11,0,0,1-22.007,0V36.089a6.4,6.4,0,0,1,1.786-4.45,6.317,6.317,0,0,1,4.6-1.938H1.472s1.812-.006,1.971,0c.078,0,7.859.3,10.681.3a6.4,6.4,0,0,1,4.452,1.78,6.319,6.319,0,0,1,1.939,4.6v7.493A11.127,11.127,0,0,1,9.509,54.878ZM1.472,35.409v8.466a8.18,8.18,0,0,0,8.037,8.036,8.181,8.181,0,0,0,8.036-8.036V36.354a3.406,3.406,0,0,0-3.39-3.39h-.03c-2.844,0-10.306-.276-10.779-.3a1.868,1.868,0,0,0-1.2.494A3.262,3.262,0,0,0,1.472,35.409Zm37.717-2.742h-.034a3.406,3.406,0,0,0-3.39,3.39v7.527a8.037,8.037,0,1,0,16.073,0V35.409c0-1.633-.422-2.275-.674-2.507a.89.89,0,0,0-.4-.22C50.716,32.667,50.716,32.667,39.189,32.667Z" transform="translate(1.495 -29.697)" fill="#377dff"/>
        </g>
      </g>
    </g>
  </g>
</svg>