<svg id="vuesax_twotone_shield-tick" data-name="vuesax/twotone/shield-tick" xmlns="http://www.w3.org/2000/svg" width="64" height="64" viewBox="0 0 64 64">
  <g id="shield-tick" transform="translate(0 0)">
    <path id="Vector" d="M22.9-1.5a13.818,13.818,0,0,1,4.582.71l.012,0L40.8,4.2a10.115,10.115,0,0,1,4.636,3.772,10.164,10.164,0,0,1,1.9,5.671V33.457a14.37,14.37,0,0,1-5.209,10.362L30.66,52.377a12.922,12.922,0,0,1-7.743,2.417,12.922,12.922,0,0,1-7.743-2.417L3.709,43.819A14.37,14.37,0,0,1-1.5,33.457V13.643A10.113,10.113,0,0,1,.4,7.995,10.128,10.128,0,0,1,5.037,4.227L18.34-.785A13.46,13.46,0,0,1,22.9-1.5Zm3.559,3.495A10.994,10.994,0,0,0,22.9,1.467a10.626,10.626,0,0,0-3.514.526L6.08,7a7.734,7.734,0,0,0-4.613,6.639V33.457a11.426,11.426,0,0,0,4.018,7.985L16.951,50l0,0a9.947,9.947,0,0,0,5.962,1.822A9.947,9.947,0,0,0,28.879,50l0,0,11.467-8.56a11.426,11.426,0,0,0,4.017-7.985V13.643A7.754,7.754,0,0,0,39.757,6.98Z" transform="translate(9.11 5.343)" fill="#377dff"/>
    <path id="Vector-2" data-name="Vector" d="M4.277,12.933A1.479,1.479,0,0,1,3.228,12.5L-1.066,8.206a1.483,1.483,0,0,1,0-2.1,1.483,1.483,0,0,1,2.1,0L4.277,9.352,14.694-1.066a1.483,1.483,0,0,1,2.1,0,1.483,1.483,0,0,1,0,2.1L5.326,12.5A1.479,1.479,0,0,1,4.277,12.933Z" transform="translate(24.15 24.497)" fill="#ffa726"/>
    <path id="Vector-3" data-name="Vector" d="M0,0H64V64H0Z" transform="translate(64 64) rotate(180)" fill="none" opacity="0"/>
  </g>
</svg>