<svg id="vuesax_twotone_3d-rotate" data-name="vuesax/twotone/3d-rotate" xmlns="http://www.w3.org/2000/svg" width="64" height="64" viewBox="0 0 64 64">
  <g id="_3d-rotate" data-name="3d-rotate" transform="translate(0 0)">
    <g id="Group" transform="translate(7.832 3.843)">
      <g id="Group-2" data-name="Group" transform="translate(1.533 10.879)">
        <path id="Vector" d="M17.65,11.7a1.482,1.482,0,0,1-.744-.2L-.76,1.267A1.483,1.483,0,0,1-1.3-.76,1.483,1.483,0,0,1,.727-1.3L17.65,8.5l16.79-9.735a1.483,1.483,0,1,1,1.488,2.567L18.394,11.5A1.483,1.483,0,0,1,17.65,11.7Z" transform="translate(1.5 1.5)" fill="#377dff"/>
        <path id="Vector-2" data-name="Vector" d="M-.017,19.633A1.483,1.483,0,0,1-1.5,18.15V-.017A1.483,1.483,0,0,1-.017-1.5,1.483,1.483,0,0,1,1.467-.017V18.15A1.483,1.483,0,0,1-.017,19.633Z" transform="translate(19.167 11.7)" fill="#377dff"/>
      </g>
      <path id="Vector-3" data-name="Vector" d="M19.216-1.5h0A10.226,10.226,0,0,1,24.066-.37l.005,0L34.734,5.564A10.85,10.85,0,0,1,39.9,14.329V25.663a10.159,10.159,0,0,1-1.506,5.025,10.193,10.193,0,0,1-3.657,3.738L24.071,40.359l-.005,0A10.289,10.289,0,0,1,19.188,41.5a10.137,10.137,0,0,1-4.861-1.138L3.667,34.428A10.85,10.85,0,0,1-1.5,25.663v-11.3A10.159,10.159,0,0,1,.006,9.337,10.194,10.194,0,0,1,3.663,5.6L14.321-.33A10.025,10.025,0,0,1,19.216-1.5Zm3.415,3.727a7.345,7.345,0,0,0-3.415-.76h0a7.138,7.138,0,0,0-3.428.783l-.017.01L5.1,8.192a8.038,8.038,0,0,0-3.638,6.17v11.3A7.981,7.981,0,0,0,5.1,31.828l.008,0,10.667,5.933a7.259,7.259,0,0,0,3.416.763,7.41,7.41,0,0,0,3.444-.765L33.3,31.833a8.038,8.038,0,0,0,3.638-6.17V14.329A7.981,7.981,0,0,0,33.3,8.164l-.008,0Z" transform="translate(1.5 1.5)" fill="#377dff"/>
    </g>
    <path id="Vector-4" data-name="Vector" d="M-.017,24.8a1.483,1.483,0,0,1-1.291-.753,1.483,1.483,0,0,1,.019-1.494l3.5-5.833a1.483,1.483,0,1,1,2.544,1.526L2.7,21.665A21.883,21.883,0,0,0,21.833-.017,1.483,1.483,0,0,1,23.317-1.5,1.483,1.483,0,0,1,24.8-.017a24.7,24.7,0,0,1-1.949,9.665,24.7,24.7,0,0,1-5.315,7.888,24.7,24.7,0,0,1-7.888,5.315A24.7,24.7,0,0,1-.017,24.8Z" transform="translate(31.368 35.357)" fill="#ffa726"/>
    <path id="Vector-5" data-name="Vector" d="M0,0H64V64H0Z" fill="none" opacity="0"/>
  </g>
</svg>